<?xml version="1.0" encoding="utf-8"?>

<!DOCTYPE svg PUBLIC "-//W3C//DTD SVG 1.1//EN" "http://www.w3.org/Graphics/SVG/1.1/DTD/svg11.dtd">
<svg version="1.1" id="Layer_1" xmlns="http://www.w3.org/2000/svg" xmlns:xlink="http://www.w3.org/1999/xlink" x="0px" y="0px"
	 viewBox="-45.9439 -60.7997 2494.8877 3301.5994" enable-background="new -45.9439 -60.7997 2494.8877 3301.5994"
	 xml:space="preserve">
<g>
	<path fill="#FF9F7F" stroke="#FF9F7F" stroke-width="0.5" d="M1272.7,10.59c8.8501-3.72,17.8601-7.4,27.29-9.33
		c25.17-0.6,50.33,0.98,75.49,1.48c11.49,0.91,23.04,0.65,34.55,1.31c143.6599,5.18,287.2899,10.88,430.9299,16.45
		c11.8101,0.27,23.8301,0.68,35.16,4.38c16.7,4.79,31.1901,15.62,42.0699,29c11.1101,13.8,18.65,30.2,23.4401,47.19
		c6.63,23.61,7.86,48.62,4.37,72.85c-2.64,18.5-9.75,36.02-18.8199,52.25c-8.51,15.5-18.9301,30.08-31.7101,42.37
		c-13.74,13.42-30.3199,23.8-48.1799,30.81c-19.17,7.73-39.77,11.24-60.29,12.79c-49.61,3.06-98.89-5.08-147.99-10.9
		c-13.51-1.45-27-3.52-40.6-4c-20.2001,43.36-40.7201,86.57-60.9601,129.9c141.0601,62.4,268.54,155.14,371.63,269.83
		c24.1901,26.67,46.8401,54.71,68.29,83.61c11.21,15.27,22.0699,30.8,32.11,46.87c25.25,41.2,44.97,85.68,72.8901,125.26
		c10.6499,14.77,22.95,28.3,36.23,40.75c47.8398,42.09,96.8899,82.8799,142.73,127.19c31.8098,31.11,62.1399,64.13,86.7998,101.3099
		c27.2202,40.4501,46.7302,86.74,52.3101,135.41c2.1101,13.8101,1.3701,27.8199,1.53,41.73c0.3401,2.28,0.9001,4.5701,0.1599,6.88
		c-2.0498,44.37-13.75,87.84-30.23,128.9301c-4.5398,10.63-8.3999,21.65-14.5698,31.49c-9.51,14.48-22.5801,26.23-36.47,36.4
		c-30.4502,21.88-65.2202,37.1799-100.99,48.01c-13.3801,3.8999-26.9802,7.09-40.79,8.98c-4.8301,0.6599-9.73,0.7-14.52,1.5699
		c-34.79,161.5601-107.45,314.71-210.0901,444.2001c-92.02,116.4299-207.9,213.8198-338.33,284.5999
		c-71.37,38.6501-147.01,69.47-225.16,91.4302c-75.3099,21.21-152.9299,34.1699-231.02,38.74c-4.48,0.25-9-0.01-13.39,1.04
		c-33.98,69.6899-72.98,137.0198-117.6799,200.3999c-47.14,66.7-100.75,128.98-161.22,183.96
		c-56.56,51.5701-118.98,96.79-185.94,133.9299c-112.35,62.7002-236.77,102.22-363.65,122.1001
		c-51.02,8.1599-102.52,13.2-154.11,15.77c-24.97,1.3699-49.98,1.46-74.97,1.3899c-29.36-0.1199-58.75,0.48-88.06-1.27
		c2.29-9.4399,5.91-18.49,8.8-27.74C116.25,2824.75,192.53,2489.5901,235.08,2150.05c1.46-13.3501,3.58-26.6602,4.61-40.02
		c-10.49-14.02-21.47-27.73-31.64-42.01c-45.96-63.48-85.09-131.9-116.42-203.74c-36.08-82.8-61.72-170.15-76.06-259.3201
		c-31.84-195.35-8.97-399.1,64.47-582.85c52.75-132.81,131.84-255.13,231.63-357.43c73.82-75.79,158.78-140.77,251.28-192.14
		c-2.41-2.61-5.8-3.91-8.62-5.96c-13.83-8.99-24.25-22.23-32.54-36.29c-5.3-9.23-10.18-18.71-14.42-28.47
		c43.54-9.91,87.03-20.01,130.58-29.87c2.79-0.93,7.13-0.4,8-3.97c25.6-59.08,66.32-111.34,116.68-151.36
		c60.89-48.64,135.69-80.44,213.46-87.78c57.9-5.4,118.08,3.71,169.56,31.61c31.64,17.04,59.45,41.05,81.0499,69.77
		c26.52,35.18,43.89,76.7,53.4601,119.55c6.0499,0.98,12.0399,2.32,18.14,3c12.48-27.68,24.75-55.46,37.1699-83.18
		c1.49-3.71,3.52-7.22,4.53-11.11c-23.09-4.29-46.22-8.37-69.24-13.02c-4.78-1.3-9.87-1.64-14.34-3.85
		c-15.5901-9.16-30.16-20.35-41.9601-34.12c-12.51-14.46-21.9399-31.75-26.36-50.41c-6.24-26.13-2.47-54.31,9.72-78.19
		C1213.33,47.92,1241.1801,24.25,1272.7,10.59 M1291.71,29.74c-5.9399,1.6-11.8999,3.18-17.6899,5.28c-1.25,0.4-2.42,1.05-3.27,2.04
		l1.6-0.04c-21.21,9.05-38.1,26.93-46.78,48.21l-1.2899,0.26c-5.14,11.17-6.7101,23.46-8.76,35.44c0.16,8.38-0.88,16.94,1.4,25.12
		c0.96,9.05,3.72,17.75,6.71,26.31c1.04,2.61,1.5,6.01,4.4399,7.22c9.1001,18.28,25.78,34.36,46.8,36.8
		c0.29,0.41,0.85,1.23,1.14,1.64c9.71,1.42,19.25,3.65,28.9299,5.27c12.03,2.83,24.29,4.5,36.3601,7.16
		c11.86,2.27,23.6699,4.82,35.58,6.78c0.9,0.45,1.77,0.98,2.62,1.58c-1.63,3.64-3.1899,7.32-4.9301,10.91
		c-0.75,1.69-2.0599,3.53-1.0399,5.4c-4.55,10.42-9.22,20.78-13.88,31.16l-1.38,0.17c-7.29,16.27-14.64,32.58-21.8201,48.93
		c-1.35,3.22-3.5399,6.31-3.1599,9.97c-6.12,13.74-12.13,27.52-18.41,41.17c-1.48-0.74-3.01-1.42-4.62-1.72
		c-10.42-2.02-20.84-4.03-31.29-5.84c-4.4299-0.72-8.84-1.88-13.36-1.58c-0.2999-0.31-0.9-0.92-1.21-1.23
		c-10.0801-49.08-33.8-95.54-69.0801-131.28c-0.0399-0.05-0.13-0.14-0.1699-0.18c-31.02-31.48-70.22-54.44-112.34-67.53l0.62-1.13
		c-17.14-5.11-34.62-9.31-52.39-11.35c-10.45-2.48-21.4-0.81-31.9301-2.8c-8.99-0.5-18.06-0.48-26.97,0.87
		c-8.06,1.12-16.38-0.31-24.26,2.03c-4.12,0.96-8.47,0.17-12.48,1.7c-24.54,3.88-48.75,10.64-71.6801,20.27
		c0.57,0.04,1.72,0.12,2.29,0.16c-33.77,13.48-65.36,32.34-93.24,55.7c-0.05,0.05-0.16,0.14-0.22,0.19
		c-6.08,5.11-11.87,10.53-17.68,15.95c-0.03,0.03-0.1,0.1-0.14,0.13c-2.61,2.58-5.28,5.12-7.79,7.8c-0.06,0.07-0.18,0.2-0.25,0.27
		c-26.61,27.44-48.47,59.3-65.46,93.51l-1.13,0.36c-2.77,3.63-4.02,8.16-6.06,12.22c-2.9,5.72-5,11.78-7.49,17.67
		c-0.78,1.46-1.3,3.49-3.16,3.86c-35.48,7.98-70.91,16.23-106.36,24.35c-3.08,0.37-7.54,0.58-7.36,4.79
		c1.92,2.01,2.74,5.89,5.89,6.15c7.81,9.19,18.36,15.61,29.32,20.38c18.75,8.15,38.92,12.28,59.03,15.4
		c3.35,0.55,6.81,0.51,10.09,1.49c2.36,0.23,4.75,0.37,7.12,0.62c-8.3,1.23-16.83-3.79-25.03-0.6
		c-114.73,54.89-219.42,130.63-307.6,222.28c-58.62,60.75-109.94,128.54-152.62,201.38C117.14,991.07,74.95,1101.05,51.93,1214.95
		c-38.8,190.3-24.75,391.1801,41.23,573.92c27.14,75.5,62.96,147.87,106.43,215.3101c21.42,33.5299,45.11,65.5599,69.96,96.62
		c-1.64,4.8298-2.11,10.04-2.31,15.1399c-0.22,4.7-1.87,9.23-1.85,13.97c0.16,8.29-3.63,16.48-1.79,24.75l-0.04,0.3
		c-0.39,0.28-1.17,0.8401-1.56,1.1101c-0.89,4.9399-0.23,10.0598-1.63,14.95c-1.47,5-0.45,10.3401-1.96,15.3501
		c-1.41,4.1099-0.74,8.5098-1.56,12.74c-0.65,3.5798-1.52,7.1399-1.59,10.8098c-0.06,4.78-1.88,9.3101-1.96,14.1001
		c-0.13,4.3699-1.65,8.5601-1.92,12.9299c-0.05,7.29-3.51,14.4102-1.84,21.74l-0.04,0.27c-2.2,0.7-1.83,3.2-2.06,5.03
		c-0.16,3.03-0.45,6.0901-1.18,9.0701c-1.17,4.23-0.68,8.7-1.89,12.9299c-1.39,4.3301-0.64,9-2.07,13.3401
		c-1.08,3.1099-0.84,6.4299-1.26,9.6799c-1.92,9.1699-3.07,18.49-4.55,27.75c-1.03,4.2-1.84,8.6001-0.88,12.9099
		c-1.27,8.1101-2.59,16.21-4,24.3c-3.16,1.1899-1.67,5.3101-2.45,7.9199c-4.35,24.0701-8.32,48.1501-12.9,72.1902
		c-0.99,3.45-1.16,7.0498-1.12,10.6499l0.58-0.97c-0.76,2.71,1.32,6.51-1.56,8.3401c0.41-2.4102,1.3-4.8401,0.46-7.25
		c-1.03,2.24-1.22,4.71-1.45,7.1599c-2.63,11.8899-4.3,24.01-7.03,35.9199c-3.24,19.1001-7.56,38.02-11.19,57.0601
		c-0.68,3.8801-2.61,7.76-1.28,11.76c-3.9,19.1201-7.95,38.21-12.17,57.26c-0.4,0.25-1.2,0.75-1.6,1.01
		c-13.25,62.4399-28.61,124.46-44.3,186.3501c-0.97,3.99-2.95,8.0098-1.98,12.24c-12,46.3899-24.8,92.5798-38.2,138.5798
		l-1.26-0.4099c-5.59,20.53-11.97,40.8499-18.11,61.23c-0.9,3.3799-3.04,6.8-1.94,10.4199c-10.78,35.76-22.41,71.26-33.88,106.8101
		l0.54,0.01c0.22,0.27,0.67,0.8,0.89,1.0601c5.17,0.03,10.24,1.3,15.41,1.1599c28,0.0601,55.99,0.1599,83.99-0.05
		c11.92-1.73,24.01-1.6499,36.03-1.8298c6.69,0.0498,13.24-1.53,19.92-1.6702c6.34-0.6099,12.79,0.2002,19.04-1.2
		c7.25-1.55,14.75-0.4399,22-1.9299c4.7-0.9102,9.49-1.0601,14.25-1.3701c5.27-0.3699,10.4-2.02,15.72-1.8999
		c4.42,0.1199,8.57-1.77,12.97-1.8601c5.73,0.03,11.13-2.3599,16.89-2.1399c11.01-2.03,22.21-3,33.11-5.6799
		c5.37,0.1499,10.28-2.3101,15.62-2.4001c5.81-1.25,11.69-2.1399,17.45-3.5898c1.95-0.7002,5.31,0.27,5.95-2.3701
		c23.31-4.8699,46.44-10.52,69.43-16.73c3.19,1.24,6.36-0.6399,9.46-1.3101c21.94-6.53,43.8-13.3699,65.39-21
		c1.16-0.7,3.33-0.73,3.28-2.52c45.77-16.6199,90.48-36.29,133.31-59.46c0.36,0.1699,1.08,0.5,1.43,0.6699l0.41-0.7798l-0.48-0.6401
		c55.65-29.78,108.12-65.3999,156.93-105.3899c0.05-0.04,0.13-0.1101,0.18-0.1401c15.52-13.01,30.9-26.22,45.67-40.0898
		c0.04-0.04,0.13-0.1201,0.17-0.1602c1.3-1.25,2.62-2.47,3.97-3.6299c0.05-0.04,0.14-0.1201,0.1801-0.1602
		c0.47-0.4199,1.4-1.26,1.87-1.6899c0.06-0.05,0.18-0.1599,0.23-0.21c16.55-16.0801,33.01-32.27,48.6-49.27
		c27.34-29.47,53-60.49,77.11-92.6399c0.04-0.04,0.1-0.1301,0.14-0.1802c33.41-44.7998,63.7501-91.8699,91.2701-140.51
		l0.9299-0.0198l0.54-0.9402l-0.42-0.8499c17.41-30.8201,33.36-62.4302,48.97-94.1802
		c150.6001-4.1599,300.2101-41.23,435.4401-107.6699c73.15-35.79,142.01-80.23,205.13-131.6599
		c0.0399-0.04,0.13-0.1101,0.1699-0.1501c19.04-15.78,37.75-31.98,55.7401-48.95c0.0499-0.05,0.1499-0.1399,0.2-0.1899
		c1.27-1.23,2.55-2.46,3.85-3.6599c0.0701-0.0601,0.21-0.1902,0.28-0.25c21.5-20.3401,42.03-41.7002,61.72-63.78
		c0.05-0.05,0.15-0.1602,0.1901-0.22c67.71-76,124.5-161.7501,167.9199-253.8201c3.4001-7.7201,7.6899-15.12,10.05-23.26
		c0.3799-15.7101,2.1001-31.39,3.96-46.9401c1.55-15.37,3.6401-30.7,5.98-45.97c0.6401-4.03,0.74-8.16,1.9399-12.0699
		c0.6702-4.64,0.9702-9.3501,2.0601-13.9c1.2-7.7001,2.3901-15.41,3.97-23.02c0.6401-3.71,0.7-7.54,2.01-11.08
		c1.02-7.6901,2.3201-15.3701,4.03-22.92c2.3801-14.0601,5.1501-28.0701,7.8901-42.0601c0.6799-3.35,1-6.7799,2.0598-10.0399
		c0.1501-1.2201,0.3201-2.4301,0.5-3.61c3.1001,0.5399,6.28,0.75,9.3101,1.7c5.3,0.84,10.71,1.03,15.98,2.09
		c25.26,2.1801,50.9299,1.3,75.6501-4.6599c38.9399-8.76,74.72-28.9,104.49-55.2201c0.0698-0.0599,0.2-0.1699,0.27-0.23
		c8.0098-7.2,15.6399-14.83,23.0098-22.7c6.5601-5.9501,8.8401-14.8101,12.8-22.4401c0.01,0.5801,0.02,1.76,0.02,2.3401
		c3.71-6.9701,6.1301-14.5,9.2-21.75c8.1001-22.5,14.3301-45.76,16.8601-69.5701c1.77-6.21,1.1899-12.6899,1.74-19.04
		c0.48-6.01-0.24-12.0199,0.2-18.0199c0.4299-8.9401-0.76-17.8501-0.71-26.78c-0.8501-5.04-1.8899-10.05-2.1499-15.15
		c-3.2002-18.87-7.6101-37.61-14.29-55.5699l-1,0.36c-17.6401-50.0801-47.01-95.26-81.3-135.51
		c-28.23-32.92-59.8201-62.87-93.27-90.4401c-0.0701-0.0499-0.21-0.1699-0.28-0.22c-20.73-17.08-42.23-33.22-64.1599-48.73
		c-5.3401-4.28-12.25-6.97-15.9102-13.05c-13.2898-19.51-29.49-36.98-47.5198-52.2c-0.0801-1.75-0.5601-3.4-1.3501-4.92
		c-28.26-57.28-61.71-111.99-99.74-163.29c-90.96-122.68-208.42-225.65-342.22-299.33c-35.92-19.73-72.8401-37.82-110.99-52.84
		c10.7699-22.87,21.5299-45.75,32.25-68.64l0.9199-0.08l0.5-0.96l-0.46-0.83c14.36-30.71,28.7999-61.38,43.27-92.04l1.0499,0.46
		c1.85-3.94,3.8-7.84,5.5901-11.82c7.86,0.11,15.75,0.32,23.5499,1.35c6.5701,1.42,13.3301,0.49,19.97,1.25
		c4.3501,0.34,8.62,1.45,13,1.57c5.9801,0.16,12,0.16,17.9601,0.88c7.7,1.96,15.73,0.8,23.5499,1.99
		c9.73,2.13,19.8201,0.42,29.5901,2.45c4.22,1.02,8.58,0.51,12.88,0.85c3.2,0.14,6.5199,0.88,9.6499-0.32l0.3101,0.02
		c1.35,1.79,3.78,1.66,5.8099,1.99c8.5601,0.57,17.3101-0.2,25.7201,1.88c2.7899,0.48,5.64,0.12,8.48,0.41
		c2.74,0.31,5.3199,1.43,8.08,1.81c7.62,0.66,15.29,1.99,22.96,0.82c9.04-0.33,17.9801-2.47,26.3101-5.98
		c-0.58-0.06-1.74-0.17-2.3199-0.22c33.38-12.12,59.73-38.95,76.47-69.74c11.7-21.79,18.89-46.45,18.08-71.33
		c-0.73-18.45-6.5-36.94-17.77-51.7c-12.1799-16.38-30.2-27.44-49.13-34.41c-1.12-2.99-4.86-2.69-7.4199-3.23
		c-5.74-0.31-11.4301-1.34-17.1801-1.23c-13.3099-0.04-26.65-0.05-39.9199-1.14c-7.6001-1.37-15.3601-0.72-23.04-0.88
		c-11.99-0.23-24.03-0.17-35.92-1.81c-13.03-0.26-26.08-0.07-39.1-0.65c-9.35-0.45-18.61-1.94-27.99-1.52
		c-3.5,0.4-7.66-1.13-10.66,1.03c-30.23-0.98-60.4399-2.22-90.6699-3.29c1.96,0.01,3.9099-0.45,5.8199-0.95
		c-7.09-1.17-14.29-0.7-21.42-0.87c-11.72,0.18-23.4299-0.63-35.0599-1.84c-19.02-0.1-38.0801-0.1-57.03-1.8
		c-12.96-0.24-25.9299-0.2-38.87-1.05c-7.38-0.31-14.6899-1.6-22.09-1.23c-14.02-0.4-28.15,0.38-42.04-1.8
		c-7.67-0.2-15.35-0.2-23.02-0.25C1316.55,29.54,1304.0601,27.76,1291.71,29.74 M2104.4299,1628.25c-1.77,5.46-1.74,11.29-3.8,16.65
		c-0.4199,2.96-0.1199,6.08-1.3899,8.88c-1.3401,3.22-0.47,6.89-1.8201,10.14c-1.5898,3.4299-0.6099,7.3999-2.0698,10.87
		c-1.4502,3.2-0.6301,6.88-1.9502,10.13c-1.3398,3.1799-0.6499,6.7799-1.7998,10c-2.1902,4.5-0.4302,9.7899-2.74,14.3199
		c-0.3,6.49-2.6602,12.59-2.9202,19.1c-1.6199,4.63-1.3599,9.5601-2.1399,14.3101c-2.21,4.1-0.77,8.9299-2.45,13.1899
		c-1.7002,4.5601-0.4302,9.62-2.1501,14.2001c-1.4199,4.1799-0.3,8.74-1.8101,12.8999c-2.0898,5.77,0.02,12.16-2.2998,17.88
		c-1.1501,3.25-0.6602,6.77-0.8101,10.17c0.0801,3.77-1.71,7.26-1.8501,11.02c-0.23,4.3,0.02,8.66-0.8499,12.9299
		c-1.46,6.9501-1.5701,14.1101-1.0801,21.1801c0.8999-1.13,1.6399-2.34,2.22-3.65c12.6799-29.2999,24.1301-59.14,34.1401-89.46
		c14-42.76,25.7698-86.3201,33.96-130.5701c-5.6501-0.24-11.3801,0.2201-16.8701-1.33c-4.23-1.13-8.74-0.29-12.8599-1.78
		C2108.9399,1628.5699,2106.6399,1628.36,2104.4299,1628.25z"/>
	<path fill="#FEC3B1" stroke="#FEC3B1" stroke-width="0.5" d="M1291.71,29.74c12.3501-1.98,24.8401-0.2,37.26-0.33
		c7.67,0.05,15.35,0.05,23.02,0.25c13.89,2.18,28.02,1.4,42.04,1.8c7.4-0.37,14.71,0.92,22.09,1.23
		c12.9401,0.85,25.91,0.81,38.87,1.05c18.95,1.7,38.01,1.7,57.03,1.8c11.63,1.21,23.34,2.02,35.0599,1.84
		c7.13,0.17,14.3301-0.3,21.42,0.87c-1.91,0.5-3.86,0.96-5.8199,0.95c-76.89-2.97-153.79-5.67-230.6801-8.58
		c-13.0699,0.05-26.28-2.36-39.22,0.35c-7,1.31-13.8301,3.4-20.4301,6.05l-1.6,0.04c0.85-0.99,2.02-1.64,3.27-2.04
		C1279.8101,32.92,1285.77,31.34,1291.71,29.74z"/>
	<path fill="#0000D4" stroke="#0000D4" stroke-width="0.5" d="M1292.78,30.97c12.9399-2.71,26.15-0.3,39.22-0.35
		c76.89,2.91,153.79,5.61,230.6801,8.58c30.23,1.07,60.4399,2.31,90.6699,3.29c63.89,2.39,127.79,4.7,191.6801,7.1
		c3.3099,0.01,6.47,1.18,9.5499,2.33c18.9301,6.97,36.9501,18.03,49.13,34.41c11.27,14.76,17.04,33.25,17.77,51.7
		c0.8101,24.88-6.38,49.54-18.08,71.33c-16.74,30.79-43.09,57.62-76.47,69.74c-14.7201,5.22-30.76,6.88-46.17,4.17
		c-10.0701-2.65-20.5601-2.5-30.85-3.52c-6.02-0.33-12.01-1.09-18.02-1.36l-0.3101-0.02c-50.2-4.05-100.4199-7.76-150.61-11.82
		c-2.0699,4.38-4.1,8.78-6.1799,13.16c-14.4701,30.66-28.91,61.33-43.27,92.04c-0.24,0.47-0.72,1.4-0.96,1.87
		c-10.7201,22.89-21.4801,45.77-32.25,68.64c-4.5801,9.52-8.89,19.16-13.51,28.65c-1.4401,3.47-3.27,6.76-4.79,10.19
		c-0.64,1.2-0.74,2.66-0.01,3.86c16,30.18,30.6,61.07,45.2,91.95c9.8401,21.06,19.8101,42.06,29.5901,63.15
		c7.14,14.46,13.8099,29.15,20.99,43.6c25.75,0.06,51.52-0.44,77.26,0.21c7.95,1.06,16.08-0.17,23.97,1.35
		c13.72,0.38,27.33,2.21,40.98,3.6c17.15,2.56,34.27,5.6,51.08,9.97c4.91,1.63,10.04,2.58,14.9,4.42c1.6901,0.5,3.41,1.02,5.14,1.53
		c1.9501,0.77,3.9401,1.44,5.98,2.05c37.16,13.07,71.74,33.63,100.4501,60.65c37.76,35,65.7799,79.18,87.6599,125.47
		c1.77,4.11,3.8101,8.11,5.5901,12.23c1.4199,3.28,2.7799,6.6,4.39,9.81c0.5099,1.38,1.0299,2.77,1.5699,4.19
		c1.09,2.8,2.34,5.56,3.9,8.16c19.2899,9.61,37.34,21.64,53.9601,35.34c18.0298,15.22,34.23,32.69,47.5198,52.2
		c3.6602,6.08,10.5701,8.77,15.9102,13.05c21.9299,15.51,43.4299,31.65,64.1599,48.73c0.0701,0.05,0.21,0.17,0.28,0.22
		c33.45,27.5701,65.04,57.52,93.27,90.4401c34.29,40.25,63.6599,85.4299,81.3,135.51c15.24,42.76,20.97,89.0599,15.1499,134.1499
		c-3.72,30.7301-12.6399,60.7001-25.02,89.03c-3.96,7.63-6.24,16.49-12.8,22.4401c-7.3699,7.87-15,15.5-23.0098,22.7
		c-0.0701,0.0601-0.2002,0.17-0.27,0.23c-29.77,26.3201-65.55,46.4601-104.49,55.2201c-24.7202,5.96-50.3901,6.84-75.6501,4.6599
		c-5.27-1.0599-10.6799-1.25-15.98-2.09c-3.03-0.95-6.21-1.16-9.3101-1.7c-0.1799,1.1799-0.3499,2.3899-0.5,3.61
		c-1.0598,3.26-1.3799,6.6899-2.0598,10.0399c-2.74,13.99-5.51,28-7.8901,42.0601c-1.71,7.5499-3.01,15.23-4.03,22.92
		c-1.3101,3.5399-1.3699,7.37-2.01,11.08c-1.5798,7.61-2.77,15.3199-3.97,23.02c-1.0898,4.5499-1.3899,9.26-2.0601,13.9
		c-1.2,3.9099-1.2998,8.0399-1.9399,12.0699c-2.3398,15.27-4.4299,30.6-5.98,45.97c-1.8599,15.55-3.5801,31.23-3.96,46.9401
		c-2.3601,8.14-6.6499,15.5399-10.05,23.26C2015.8,1974.37,1959.01,2060.1201,1891.3,2136.1201
		c-0.04,0.0598-0.14,0.1699-0.1901,0.22c-19.6899,22.0798-40.22,43.4399-61.72,63.78c-0.0701,0.0598-0.21,0.1899-0.28,0.25
		c-1.2999,1.2-2.58,2.4299-3.85,3.6599c-0.05,0.05-0.15,0.1399-0.2,0.1899c-17.9901,16.97-36.7001,33.1699-55.7401,48.95
		c-0.0399,0.04-0.13,0.1101-0.1699,0.1501c-63.12,51.4299-131.98,95.8699-205.13,131.6599
		c-135.23,66.4399-284.84,103.51-435.4401,107.6699c-15.61,31.75-31.5599,63.3601-48.97,94.1802
		c-0.26,0.45-0.79,1.3599-1.0499,1.8098c-27.52,48.6401-57.86,95.7102-91.2701,140.51c-0.04,0.05-0.1,0.1401-0.14,0.1802
		c-24.11,32.1499-49.77,63.1699-77.11,92.6399c-15.59,17-32.05,33.1899-48.6,49.27c-0.05,0.05-0.17,0.1599-0.23,0.21
		c-0.47,0.4299-1.4,1.27-1.87,1.6899c-0.04,0.04-0.13,0.1201-0.1801,0.1602c-1.35,1.1599-2.67,2.3799-3.97,3.6299
		c-0.04,0.04-0.13,0.1201-0.17,0.1602c-14.77,13.8699-30.15,27.0798-45.67,40.0898c-0.05,0.03-0.13,0.1001-0.18,0.1401
		c-48.81,39.99-101.28,75.6099-156.93,105.3899c-0.34,0.1799-1.02,0.5601-1.36,0.75c-42.83,23.1699-87.54,42.8401-133.31,59.46
		c-25.71,9.3-51.8,17.51-78.13,24.8301c-22.99,6.21-46.12,11.8601-69.43,16.73c-83.08,17.4299-167.94,25.3701-252.74,26.74
		c-12.86-0.1299-25.71-0.1199-38.57,0.01c-12.65-0.02-25.28-0.8501-37.93-0.98l-0.54-0.01c11.47-35.55,23.1-71.05,33.88-106.8101
		c7.32-23.6899,14.39-47.4399,21.31-71.24c13.4-46,26.2-92.1899,38.2-138.5798c17.31-66.2002,33.21-132.77,47.88-199.6001
		c4.22-19.05,8.27-38.1399,12.17-57.26c7.22-34.8,14.2-69.6699,20.49-104.6499c2.88-1.8301,0.8-5.6301,1.56-8.3401
		c5.73-29.8501,10.85-59.8201,15.89-89.79c1.41-8.0901,2.73-16.1899,4-24.3c4.9-30.2,9.56-60.4299,13.89-90.71l0.04-0.27
		c5.05-34.52,9.72-69.0999,14.02-103.73l0.04-0.3c2.17-18.28,4.78-36.52,6.39-54.8599c0.39-2.25,0.62-4.5,0.89-6.74
		c1.11-5.6201,1.32-11.3701,1.93-17.05c1.54-6.9099,0.97-14.1301,2.44-21.03c0.46-4.96,1.06-9.91,1.37-14.87
		c3.62,0.7001,6.76,2.6901,10.03,4.3101c18.59,9.2198,37.35,18.15,56.41,26.38c4.9,2.24,9.91,4.23,14.84,6.4299
		c9.94,4.1301,19.95,8.1001,29.98,12.02c5.08,1.78,10.06,3.8899,15.2,5.54c5.59,2.22,11.34,4,17.02,5.99
		c20.67,6.97,41.6,13.28,62.89,18.05c6.24,1.8398,12.69,2.8799,19.02,4.3899c3.66,0.6101,7.37,0.98,10.96,1.99
		c11.58,2.01,23.19,3.9001,34.9,4.9102c3.38,0.3699,6.83,0.1799,10.14,1.0798c2.53,0.22,5.06,0.3,7.6,0.4102
		c-0.13-16.9302,1.21-33.78,3.21-50.5701c1.21-4.6201,1.12-9.46,2.37-14.0601c1.54-10.3899,3.62-20.71,6.03-30.9299
		c1.58-7.77,3.7-15.41,5.6-23.1001c2.57-9.36,5.19-18.71,8.02-27.99c2.62-8.0299,5.1-16.1,7.94-24.0499
		c0.79-2.3,1.5699-4.5901,2.41-6.85c1.3-3.6801,2.67-7.3201,4.03-10.9701c0.6201-1.71,1.27-3.4,1.96-5.0599
		c3.13-8.38,6.44-16.7101,10.04-24.91c1.25-3.0599,2.57-6.09,3.97-9.0699c9.05-20.5801,18.98-40.8201,30.44-60.17
		c-0.1-1-0.19-1.97-0.28-2.91c-2.14-0.5699-4.24-1.27-6.2599-2.13c-3.75-1.36-7.11-4.02-11.1-4.51
		c-4.57,0.6801-8.62,3.26-13.07,4.4601c-8.16,3.1699-16.57,5.6599-24.88,8.39c-7,2.13-14.06,4.0199-21.1,5.99
		c-2.67,0.5399-5.32,1.1899-7.91,2.0299c-3.02,0.5601-6.03,1.14-8.97,2c-3.05,0.53-6.11,1.1001-9.08,1.9801
		c-22.13,3.9099-44.45,7.45-66.97,7.46c-1.36,0.0599-2.69,0.26-4,0.58c-8.72,0.49-17.43,0.14-26.09-0.72
		c-11.4,0-22.69-1.75-33.96-3.29c-7.31-1.4199-14.71-2.48-21.92-4.38c-9.09-2.2899-18.17-4.7-26.93-8.0599
		c-4.85-1.6-9.54-3.62-14.27-5.53c-30.57-13.3099-58.8-33.51-78.05-61.05c-6.2-8.85-11.38-18.3899-15.59-28.33
		c-2.06-5.1899-3.89-10.46-5.39-15.83c-4.23-15.3-6.07-31.27-5.22-47.12c1.01-6.62,0.89-13.36,2.23-19.92
		c0.78-3.33,1.34-6.6899,1.98-10.02c0.78-2.65,1.41-5.33,2-8.01c1.91-6.0399,3.76-12.1,6.01-18.0299c0.7-1.67,1.36-3.3401,2-5.01
		c15.37-37.0601,39.94-69.6801,68.11-97.9601c24.04-24.71,51.36-45.9399,79.46-65.8099c0.05-2.41,0.22-4.8301,0.82-7.16
		c0.4-5.34,1.04-10.65,1.59-15.97c1.3-4.24,1.18-8.75,2.4-12.99c0.6-3.01,1.18-6.02,2.01-8.9601c0.6-2.37,1.24-4.72,1.98-7.0299
		c5.17-17.66,13.95-34.63,27.26-47.53c11.09-11.33,25.04-19.36,39.42-25.77c1.38-0.53,2.77-1.05,4.16-1.5599
		c1.94-0.8401,3.91-1.64,5.87-2.4301c5.7-1.92,11.34-4.05,17.17-5.55c2.29-0.76,4.63-1.4099,6.98-1.96c1.34-0.42,2.7-0.8,4.06-1.16
		c0.97-3.0399,1.83-6.11,2.71-9.1599c0.78-2.3,1.45-4.63,2-6.9801c1.56-4.61,2.81-9.3099,4.4-13.8999
		c1.65-6.0901,3.83-12.01,5.67-18.03c0.68-2.01,1.32-4.03,1.97-6.04c0.72-1.99,1.37-4,1.94-6.03
		c0.51-1.3099,1.01-2.6299,1.55-3.8999c0.09-0.52,0.28-1.55,0.37-2.0601c2.52-5.85,4.09-12.03,6.52-17.9
		c1.73-5.12,3.81-10.09,5.54-15.2c2.64-6.7,5.27-13.4,8-20.05c0.81-1.9299,1.62-3.85,2.47-5.74c0.5-1.4099,1.02-2.7999,1.54-4.1799
		c1.41-2.98,2.77-5.9701,4-9.02c16.59-37.16,36.2-73.37,62.21-104.86c22.39-27.51,50.05-50.53,80.59-68.5
		c17.24-10.23,35.24-19.11,53.52-27.3101c3.29-1.45,6.57-2.93,9.87-4.39c6.26-2.79,12.66-5.28,18.92-8.07
		c7.78-3.08,15.44-6.44,23.21-9.56c1.64-0.69,3.3-1.35,4.97-1.99c1.95-0.81,3.9-1.6,5.84-2.43c1.38-0.52,2.76-1.04,4.15-1.5601
		c9.61-4.15,19.36-7.97,29.03-12c1.91-0.84,3.85-1.6299,5.78-2.43c2.78-1.13,5.52-2.37,8.27-3.57c2.35-1.48,6.82-1.3799,7.45-4.5
		c-20.98-17.67-35.03-41.81-47.3701-65.93c-3.65-7.49-7.96-14.65-11.2599-22.3c-3.98-0.15-8.05-0.34-11.93,0.76
		c-7.02,0.27-13.98,1.32-21.01,1.23c-6.38-0.19-12.66,1.31-19.05,0.92c-6.36,0.4-12.6299-1.03-18.98-0.9
		c-5.7,0.11-11.32-0.91-16.98-1.28c-6.69-1.28-13.43-2.29-20.02-4.02c-12.12-3.56-24.38-8.59-33.04-18.15
		c-3.76-4-6.38-8.89-8.26-14.01c-1.06-5.27-2.43-10.61-1.97-16.03c1.03-3.96,0.96-8.11,2.05-12.06c0.88-2.6,1.57-5.26,2.42-7.87
		c1.23-3.37,2.51-6.72,4.01-9.99c2.65-5.75,5.7-11.32,9.02-16.71c0.86-1.29,1.34-2.76,1.4301-4.3c-5.3-2.17-10.02-5.73-13.61-10.17
		c-2.96-3.49-3.3-8.86-0.85-12.7c2.82-4.43,7.04-7.81,11.58-10.37c-2-3.77-5.52-6.29-8.37-9.34c-4.33-4.17-8.3-8.73-12.9301-12.56
		c-0.49-4.77,3.11-8.46,4.85-12.59c1.97-4.68,5.38-8.72,6.52-13.73c-7.1-0.17-14.02-1.77-20.89-3.39c-0.99-0.39-1.97-0.78-2.94-1.16
		c-1.04-0.28-2.06-0.55-3.08-0.81c-10.45-4.1-20.94-11.61-23.27-23.29c-0.7599-5.16,0.45-10.24,2.04-15.11
		c3.37-8.06,8.67-15.18,14.8-21.35c6.1-5.89,12.23-11.78,17.37-18.56c13.58-15.93,26.72-32.25,40.61-47.92
		c-0.09-0.67-0.17-1.33-0.24-1.98c-7.97-3.82-15.64-9.59-19.72-17.61c-2.62-4.81-1.67-10.34-0.66-15.44
		c1.74-10.51,3.84-21,4.96-31.59c-10.92-0.68-21.81-1.55-32.7-2.66c-2.37-0.25-4.76-0.39-7.12-0.62c-3.28-0.98-6.74-0.94-10.09-1.49
		c-20.11-3.12-40.28-7.25-59.03-15.4c-10.96-4.77-21.51-11.19-29.32-20.38c-1.55-2.45-4.33-4.65-4.44-7.68
		c0.77-0.74,1.69-1.2,2.77-1.39c37.42-8.44,74.78-17.18,112.21-25.63c4.54-11.78,9.58-23.37,15.13-34.7
		c16.99-34.21,38.85-66.07,65.46-93.51c0.07-0.07,0.19-0.2,0.25-0.27c2.51-2.68,5.18-5.22,7.79-7.8c0.04-0.03,0.11-0.1,0.14-0.13
		c5.81-5.42,11.6-10.84,17.68-15.95c0.06-0.05,0.17-0.14,0.22-0.19c27.88-23.36,59.47-42.22,93.24-55.7
		c68.45-27.18,146.29-31.82,216.8-9.75c42.12,13.09,81.3199,36.05,112.34,67.53c0.0399,0.04,0.13,0.13,0.1699,0.18
		c35.28,35.74,59,82.2,69.0801,131.28c1.22,4.55,1.7,9.25,2.74,13.85c0.42,2.53,0.86,5.06,1.34,7.59
		c7.22,0.25,14.3201-1.33,21.55-1.16c7.0399,0,14.08-0.31,21.11-0.97c1.21-2.99,2.48-5.96,3.74-8.94
		c6.28-13.65,12.29-27.43,18.41-41.17c8.7999-19.68,17.5399-39.4,26.36-59.07c4.66-10.38,9.33-20.74,13.88-31.16
		c2.3099-6.03,5.9299-11.62,7.4-17.93c-35.2401-7.35-70.7201-13.84-106.0601-20.81c-21.02-2.44-37.7-18.52-46.8-36.8
		c-14.11-29.21-14.8199-64.41-2.5-94.35c8.6801-21.28,25.5701-39.16,46.78-48.21C1278.95,34.37,1285.78,32.28,1292.78,30.97
		 M1292.01,50.92c-11.48,6.39-22.42,14.08-31.11,24.01c-7.11,8.17-12.25,18.23-13.79,29.01c-2.02,12.27,0.15,24.77,3.34,36.65
		c36.52,3,73.03,6.05,109.55,9.11c20.89,1.58,41.78,3.78,62.67,4.99c6.87-4.88,13.62-10.07,21.34-13.58
		c11.29-5.67,24.6-7.17,36.83-3.89c16.1901,4.39,30.03,14.66,42.14,25.94c1.8301,1.52,3.29,4.09,6,3.93
		c65.14,6.22,130.28,12.45,195.42,18.61c-4.74-14.99-7.8-30.92-5.5-46.64c1.9-15.08,9.48-29.18,20.5599-39.52
		c14.01-13.64,32.41-21.35,50.5901-27.67c-62.37-3.02-124.77-5.55-187.15-8.39c-101.3-4.47-202.59-8.94-303.89-13.44
		C1296.66,50.11,1294.09,49.58,1292.01,50.92 M1439.36,170.44c-36.62,77.76-72.8099,155.72-109.37,233.51
		c19.27-1.28,38.55-2.47,57.8101-3.85c27.4299-62.4,54.62-124.91,82.08-187.3c29.86,7.9,58.38,20.04,86.2,33.31
		c-9.6699-19.99-21.09-39.55-36.9199-55.33c-11.9701-11.99-27.2201-21.41-44.2101-23.83
		C1463.01,164.99,1450.83,166.98,1439.36,170.44 M959.88,199.19c-73.21,10.87-141.08,49.48-190.63,104.04
		c-26.73,29.1-48.31,62.72-64.87,98.54c59.03,7.64,117.96,16.1,176.69,25.83c2.31,0.06,5.5,1.89,7.14-0.53
		c16.49-18.46,33-36.9,49.45-55.4c6.04-6.28,11.36-13.28,17.6-19.32c21.6-0.68,42.94,4.23,63.76,9.53
		c14.47,3.88,28.89,8.04,42.96,13.17c-27.1699-0.86-54.33-2.42-81.49-3.6c-12.45,22.29-25.1,44.47-37.3,66.89
		c61.91,10.86,123.48,23.63,184.8701,37.12c1.7799-12.38,4.23-24.95,10.24-36.06c4.58-8.47,11.71-15.55,20.3999-19.76
		c10.37-5.22,21.92-7.36,33.24-9.48c12.03-2.07,24.0901-4.09,36.0601-6.52c-3.8101-43.61-17.84-87-44.35-122.19
		c-26.67-36.02-65.8-62.04-108.61-74.77C1037.88,195.4,998.19,193.43,959.88,199.19 M613.9,430.46
		c42.71,7.87,85.33,16.31,128.0099,24.35c120.17,23.03,240.36,45.93,360.5201,68.99c5.5-9.64,11.38-19.07,16.71-28.81
		c-97.88-22.03-196.22-42.47-295.62-56.34c-48.58-6.6-97.46-11.83-146.53-12.25C655.91,426.45,634.74,427.09,613.9,430.46
		 M1185.98,434.41c-6.5,0.63-12.48,4.06-17.49,8.09c-10.9299,9.53-14.91,25.82-10.45,39.49c1.7899,5.25,4.7899,10.5,9.7799,13.26
		c7.7001,0.86,15.52,0.56,23.27,1.04c42,1.62,84,3.15,126,4.75c3.1801,0.25,6.24,2.37,7.5,5.33c0.9501,2.46-0.58,5.26-2.8099,6.42
		c-4.39,2.65-9.72,2.18-14.63,2.3c-46.0701,1.37-92.15,2.58-138.22,3.93c-5.12,0.2-10.38-0.27-15.3,1.42
		c-14.21,4.5-25.0699,17.02-29.09,31.18c-1.51,5.81-1.9501,12.33,0.85,17.84c2.24,4.72,7.3199,7.97,12.5699,7.91
		c47.02,1.38,94.04,2.77,141.0601,4.14c3.66-0.07,7.24,3.62,6.61,7.36c-2.05,7.82-11.36,10.58-18.58,10.41
		c-46.05,1.02-92.1101,2.03-138.15,3.03c-21.88,2.67-38.2001,26.91-32.61,48.19c1.7799,5.55,6.0399,12.19,12.6699,11.72
		c33.02,0.71,66.03,1.4901,99.05,2.19c4.5,0.08,9.3199-0.18,13.34,2.28c3.0601,1.58,5.6901,5.41,3.92,8.86
		c-2.21,4.01-7.13,5.13-11.3201,5.67c-40.3199,3.78-80.7,7.03-120.99,10.97c-3.35,2.51-5.9099,5.95-8.7,9.05
		c-14.96,17.13-25.36,38.78-26.78,61.67c-0.23,5.8-1,11.8701,1.13,17.4301c10.0601,31.5699,19.66,63.3,29.92,94.8199
		c9.46-23.2,20.0399-45.98,29.37-69.2c-3.6901-12.03-7.85-23.91-11.65-35.9c32.25,1.62,64.65,3.28,96.9,0.63
		c2.75,0.25,6.64-2.19,8.49,0.73c22.95,30.92,48.37,60.12,77.04,85.88c28.0399,25.27,59.24,47.29,93.4099,63.47
		c36.41,17.29,76.29,27.57,116.65,28.64c82.27,83.2701,152.37,177.4001,220.97,271.95c39.52,54.3101,78.48,109.09,120.3301,161.65
		c34.52,43.0699,70.97,84.97,113.0399,120.88c34.86,29.52,74.27,54.91,118.4601,67.73c27.29,7.99,56.0801,10.89,84.4099,8.35
		c44.3501-3.83,86.79-19.88,125.5601-41.2c7.72-3.97,13.97-10.26,19.24-17.0601c10.8501-14.6799,16.9199-32.27,20.8899-49.9299
		c4.6201-21.27,6.1602-43.11,5.9202-64.8401c-0.48-30.3099-4.3801-60.5699-11.6501-90
		c-5.5698-22.1699-12.97-44.0199-23.6099-64.2999c-10.98-20.25-24.1799-39.26-38.6799-57.13
		c-29.7302-36.71-66.3201-67.1901-104.8701-94.22c-47.3701-33.1001-97.5701-61.87-147.72-90.48
		c-63.53-35.86-127.4301-71.05-190.98-106.86c-70.79-39.86-141.1801-80.46-211.03-121.95c-1.85-1.63-2.59-4.16-3.77-6.25
		c-51.48-100.57-102.97-201.13-154.46-301.7c-10.4401-23.57-33.6901-40.35-58.92-44.6c-11.8-2.67-23.91-1.31-35.86-0.98
		C1292.67,430.46,1239.33,432.46,1185.98,434.41 M786.4,495.82c-11.94,14.79-21.95,31.24-28.6,49.09
		c-13.83,35.92-13.58,75.91-4.95,113.03c0.53,2.27,1.31,4.66,0.42,6.97c-9.82,32.77-11.63,68.29-2.78,101.4901
		c1.23,3.22-0.68,6.34-1.29,9.48c-2.74,11.06-3.23,23.76,3.32,33.64c5.51,8.6,15.48,13.1,25.23,14.85c15.7,2.77,31.77,0.55,47.2-2.8
		c30.55-7.72,62-14.26,89.87-29.58c15.56-8.44,29.12-20.85,37.78-36.39c10.7401-19.18,16.65-40.52,23.73-61.2
		c5.82,0.94,11.8,1.45,17.62,0.15c10.81-2.26,20.1-9.19,26.95-17.66c8.0499-9.75,13.65-21.26,17.99-33.07
		c7.4-20.73,10.95-42.79,11.01-64.77c-0.22-13.57-1.5801-27.41-6.75-40.07c-2.91-6.83-7.49-13.76-14.76-16.41
		c-6.86-2.58-14.44-0.33-20.53,3.19c-12.86,7.44-22.63,18.98-31.69,30.52c-4.93,6.06-9.01,12.7599-13.7,18.96
		c-9.74-0.58-19.45-1.82-29.1899-2.58c-1.25-5.6-1.1801-11.66-4.25-16.69c-4.11-6.9-11.45-10.9-18.21-14.77
		c-1.09-9-7.81-15.96-14.82-21.06c-13.1-9.1-28.65-13.79-44.06-17.23C830.41,498.35,808.39,496.31,786.4,495.82 M1021.87,738.89
		c-9.55,6.85-21.93,10.56-33.52,7.21c-12.66,34.38-14.41,71.87-10.12,107.9901c5.39,45.14,18.92,88.91,35.76,130.99
		c9.2-18.53,18.0701-37.23,27.1901-55.81c8.2599-17.41,17.12-34.56,25.0499-52.12c-9.36-34.04-18.38-68.17-27.58-102.2401
		c-2.49-16.28,2.4399-32.5699,7.58-47.8799c3.27-10.04,8.25-19.42,11.8301-29.32C1048,712.98,1036.97,728.22,1021.87,738.89
		 M1592.23,719.25c10.46,17.03,20.65,34.25,30.72,51.52c5.5601,0.73,11.2001,0.17,16.8101,0.64c36.26,1.82,71.75,11.07,105.8,23.27
		c40.11,14.64,78.5299,33.7,115.11,55.66c32.7999,19.7599,64.1699,41.9,93.4199,66.62c-0.5699-1.43-1.13-2.84-1.74-4.22
		c-16.08-33.52-39.21-63.35-65.99-89c-28.63-27.45-61.61-50.28-97.11-67.92c-40.66-20.18-84.88-33.53-130.15-37.71
		C1636.87,716.24,1614.33,716,1592.23,719.25 M1153.9,812.24c-75.23,174.62-150.42,349.26-225.55,523.91
		c25.4,11.7999,50.82,23.5399,76.2,35.37c1.2-2.54,2.3-5.12,3.42-7.6901c65.37-151.9399,131.04-303.75,196.29-455.7399
		C1187.4,876.18,1171,844,1153.9,812.24 M1081.15,1401.46c8.87,8.8501,17.73,17.7001,26.58,26.5801
		c41.09-117.37,82.14-234.75,123.24-352.12c2.16-6.76,5.01-13.3,6.74-20.1801c-0.35-0.05-1.0499-0.15-1.3999-0.2
		c0.6699-0.2001,1.35-0.37,2.0599-0.52c6.4401-19.04,13.25-37.95,19.84-56.94c6.14-18.13,13-36.03,18.7001-54.28
		C1211.62,1096.34,1146.41,1248.91,1081.15,1401.46 M766.52,1028.59c-35.27,19.01-67.47,43.8401-94.34,73.6
		c-26.35,29.05-47.54,62.5701-63.67,98.27c-17.02,37.8501-28.84,77.9501-36.3,118.74c32.66-55.97,70.77-109.33,117.84-154.1399
		c28.4-27.03,60.15-50.76,95.09-68.67c39-20.13,82-32.5601,125.78-35.9501c-4.3-25.84-8.63-51.6899-13.23-77.4799
		C852.17,992.05,807.42,1006.41,766.52,1028.59 M1463.14,1027.88c34.42,272.76,75.14,545.15,137.08,813.1899
		c23.86,103.1001,51.01,205.4701,82.5701,306.5001c19.63,0.5698,38.3199-7.1902,55.25-16.4402
		c30.75-17.3699,57.62-40.72,83.0299-65.0398c-17.7699-43.7701-34-88.1501-49.61-132.7201
		c-37.11-106.71-69.24-215.11-97.2899-324.53c-40-157.5299-72.05-317.2799-90.8101-478.7899
		C1543.29,1095.98,1503.37,1061.73,1463.14,1027.88 M781.41,1361.49c-14.1299,5.95-25.14,18.1801-30.5699,32.41
		c-7.32,18.5399-6.9901,39.0399-4.46,58.51c-15.87,5.0399-31.86,12.2799-42.98,25.09c-7.88,8.85-12.02,20.6899-11.97,32.49
		c0,17.1801,6.46,33.5701,14.32,48.58c-5.15,2.54-10.49,4.75-15.18,8.13c-12.5,8.1901-21.15,21.7001-23.73,36.39
		c-3.96,21.9,1.7599,44.02,8.6,64.74c-14.38,6.25-27.79,15.88-36.29,29.26c-8.09,12.65-10.06,28.73-5.9,43.1
		c5.04,17.9901,17.15,33.1801,31.19,45.13c22.83,8.0801,45.93,15.4801,68.86,23.3401c45.17,15.22,90.36,30.4099,135.54,45.63
		c7.0099,2.1599,13.8,5.35,21.2,5.95c13.62,1.65,27.9-1.98,38.88-10.28c10.99-8.1,19.24-20.99,19.11-34.95
		c0.24-16.72-13.17-30.49-28.07-36c-49.08-19.87-98.12-39.85-147.2-59.72c-4.66-2.24-9.4-6.8101-8.87-12.4
		c0.57-3.25,4.1-4.72,7.06-4.79c6.07-0.28,11.51,2.86,17.12,4.7101c52.93,19.86,105.9,39.62,158.83,59.49
		c11.34,4.5399,24.65,1.98,34.47-4.9501c14.68-10.23,24.12-28.3099,22.56-46.3199c-0.92-10.61-6.82-20.54-15.44-26.72
		c-4.52-3.67-10.29-4.9701-15.55-7.14c-53.18-20.1901-106.36-40.41-159.56-60.5601c-4.58-1.73-9.1-4.9-10.83-9.65
		c-1.72-4.39,0.92-9.3999,5-11.33c3.44-1.72,7.61-2.76,11.4-1.63c58.38,19.54,116.75,39.13,175.14,58.64
		c10.49,2.7999,22.06,2.09,31.94-2.52c22.5699-10.41,34.4-39.84,24.47-62.78c-3.4399-7.5399-9.4-14.6599-17.53-17.21
		c-62.65-24.0601-125.28-48.2-187.95-72.22c-2.54-0.91-4.16-3.2201-5.81-5.2101c-2.42-3.1-4.78-7.22-2.68-11.13
		c4.25-2.86,9.49-3.09,14.4399-3.09c4.92-0.15,9.35,2.28,13.97,3.62c62.07,20.78,124.09,41.72,186.18,62.42
		c12.1901,1.4199,24.38-4.01,33.29-12.12c13.35-12.24,20.5699-31.65,16.2899-49.52c-3.88-16.47-17.09-30.1801-32.97-35.66
		c-72.41-29.5499-144.75-59.26-217.15-88.8199c-4.07-1.6801-8.09-3.63-12.48-4.28C819.4,1354.49,799.22,1353.77,781.41,1361.49
		 M498.53,1380.5699c-14.5,10.8-26.11,25.1801-34.81,40.9501c14.53-5.34,29.22-10.35,44.28-13.99
		c43.68-11.0601,90.39-12.4401,133.89,0.22c21.41,6.12,41.82,15.52,60.79,27.14c0.69-11.0601,1.6-22.11,2.12-33.1801
		c-26.8-13.96-54.49-26.58-83.7-34.6c-22.44-6.11-45.93-9.66-69.18-7.0499C532.76,1362.14,514,1368.97,498.53,1380.5699
		 M491.14,1494.49c-41.99,4.16-83.74,17.55-117.95,42.72c-29.68,21.4701-52.7,51.78-65.99,85.87
		c-16.67,42.2201-19.33,88.86-13.68,133.55c4.6,8.58,10.81,16.27,17.47,23.37c22.08,23.42,52.7,37.0699,83.87,43.37
		c26.35,5.35,53.44,6.17,80.22,4.51c45.81-3.02,90.86-13.22,134.6-26.87c-4.45-9.34-8.34-19.01-10.55-29.15
		c-8.13,2.4401-16.02,5.67-24.19,8.02c-34,10.34-69.9,15.49-105.41,12.26c-40.6-3.34-79.79-18.26-113.56-40.8201
		c35.62,2.0701,71.39,2.5,106.99-0.1799c45.55-3.16,90.77-11.0701,134.65-23.6901c4.74-27.6599,18.13-53.0199,34.72-75.34
		c-7.23-19.5-12.01-41.28-5.76-61.7c5.66-18.87,21.1-33.1901,38.33-41.79c-1.13-9.97-2.81-19.87-4.17-29.8
		C606.7,1499.3,548.6,1488.86,491.14,1494.49 M1060.64,1783.62c-4.65,8.24-10.84,16.45-19.9301,20.01
		c-6.76,2.66-14.3099,1.58-20.86-1.13c6.8301,31.14,15.37,61.9,24.65,92.41c19.64,63.9299,43.4,126.5299,69.33,188.16
		c21.12,49.8298,43.5801,99.0898,67.3,147.73c35.67,8.3298,71.36,16.5798,107.08,24.6899
		c-68.9199-179.8301-138.08-359.5699-207-539.4C1076.46,1739.11,1071.96,1762.74,1060.64,1783.62 M816.75,1897.5601
		c-0.47,1.61-0.95,3.25-1.34,4.9199l-0.73,0.12c-0.26,1.09-0.53,2.2001-0.81,3.3301c-0.59,1.37-1.18,2.7599-1.71,4.1899
		c-0.62,1.66-1.28,3.33-2.04,4.96c-0.32,1.11-0.58,2.25-0.77,3.42l-0.78,0.01c-0.37,1.65-0.79,3.3099-1.13,5l-0.81,0.04
		c-0.16,1.13-0.41,2.2699-0.75,3.3999c-0.63,1.3501-1.21,2.7301-1.79,4.13c-0.31,1.1001-0.56,2.24-0.7401,3.41h-0.79
		c-0.36,1.65-0.78,3.3101-1.11,5l-0.89,0.09c-0.07,0.61-0.23,1.8401-0.31,2.4501c-0.43,1.1-0.74,2.25-0.93,3.46l-0.73,0.04
		c-0.54,2.6-1.39,5.13-2.52,7.5499c-0.28,1.0901-0.52,2.2101-0.72,3.36l-0.7599,0.0801c-0.22,1.12-0.47,2.25-0.72,3.41
		c-0.58,1.36-1.17,2.74-1.7,4.1599c-0.31,0.99-0.59,2-0.86,3.04c-0.44,0.95-0.87,1.92-1.28,2.92c-0.25,1.13-0.46,2.2799-0.64,3.47
		l-0.88-0.01c-0.08,0.63-0.22,1.89-0.3,2.52c-0.38,1.11-0.67,2.26-0.87,3.46l-0.84,0.02c-0.07,0.62-0.22,1.87-0.29,2.49
		c-0.39,1.13-0.68,2.3-0.87,3.53l-0.8701-0.0901c-0.06,0.64-0.17,1.92-0.23,2.5601c-0.46,1.09-0.76,2.25-0.9,3.47l-0.86,0.05
		c-0.06,0.62-0.19,1.87-0.25,2.49c-0.44,1.1-0.73,2.26-0.87,3.48l-0.73,0.02c-0.2,1.13-0.42,2.28-0.67,3.4399
		c-1.06,2.9801-2.03,6-2.75,9.1001c-0.67,1.21-1.18,2.49-1.54,3.87c-0.03,0.64-0.1,1.9199-0.13,2.5599l-0.89,0.0801
		c-0.4,2.2999-0.94,4.58-1.3,6.9199l-0.75,0.05c-0.41,2.2899-0.93,4.59-1.22,6.9299l-0.78,0.0601c-0.2,1.13-0.41,2.28-0.64,3.45
		c-1.04,3.4501-2.25,6.89-2.57,10.51l-0.76,0.03c-0.32,2.65-1,5.25-1.27,7.9399l-0.78,0.0701c-0.38,2.6599-0.93,5.29-1.23,7.99
		l-0.85-0.05c-0.09,1.1699-0.19,2.3501-0.3,3.5601c-0.57,1.4099-0.73,2.8899-0.79,4.4399l-0.8199,0.0901
		c-0.1201,2.8899-0.71,5.74-1.38,8.5701c-1.12,3.6599-1.67,7.5-1.84,11.3398l-0.83,0.0601c-0.09,6.26-2.31,12.26-2.4,18.53
		c-0.86,3.0701-0.69,6.28-0.68,9.46l-0.92-0.02c-0.27,10.3401-0.34,20.6799-0.05,31.04l0.92-0.04c0.04,1.8201,0.14,3.7,0.25,5.5701
		c4.66,3.03,8.9,6.6499,13.59,9.6499c3.6,2.8501,7.5,5.3,11.2,8.02c2.94,2,5.84,4.0901,8.89,5.97c1.15,0.8301,2.29,1.72,3.42,2.6501
		c0.91,0.4099,1.83,0.8298,2.76,1.2798l0.01,0.6501c1.15,0.54,2.28,1.1599,3.29,2.02c0.78,0.45,1.57,0.9199,2.39,1.3999
		c1.19,0.8501,2.39,1.73,3.57,2.6602c0.89,0.4099,1.79,0.8398,2.6899,1.3098l0.09,0.6201c1.98,0.99,3.89,2.1599,5.75,3.4099
		c0.94,0.6401,1.9,1.3301,2.86,2.04c4.35,2.6201,8.59,5.4399,12.94,8.1001c1.05,0.6799,2.16,1.3298,3.33,1.8999l0.08,0.6201
		c0.93,0.3899,1.87,0.8098,2.82,1.26c3.16,2.21,6.5,4.1699,9.84,6.1299c1.02,0.75,2.13,1.4199,3.35,1.9099l0.04,0.6501
		c2.47,0.5698,4.28,2.45,6.57,3.45c1.03,0.6599,2.11,1.28,3.19,1.96c1.21,0.8701,2.57,1.53,4.02,2.01l0.1,0.7
		c0.92,0.3501,1.84,0.74,2.77,1.1802c2.22,1.6399,4.61,3.1099,7.23,4.0898l0.07,0.6001c2.41,0.8999,4.48,2.54,6.93,3.3999
		l0.07,0.6001c2.42,0.8799,4.47,2.5601,6.94,3.3899l0.03,0.6501c0.93,0.3999,1.86,0.8398,2.8,1.3198
		c1.29,0.8501,2.73,1.4502,4.21,1.99l0.04,0.6501c2.44,0.8499,4.63,2.25,6.96,3.3899l0.07,0.6702
		c1.27,0.3799,2.54,0.8398,3.82,1.2898l0.1,0.6802c2.38,1.01,4.61,2.3499,7.01,3.3599l0.03,0.73c1.29,0.3701,2.6,0.8,3.92,1.21
		l0.05,0.7002c2.59,1.0498,5.08,2.3599,7.43,3.9199c1.15,0.48,2.33,0.97,3.55,1.3899l0.03,0.77c1.31,0.3501,2.61,0.77,3.94,1.2002
		l0.01,0.76c3.89,1.2998,7.15,3.99,11.05,5.2598l0.03,0.78c1.31,0.3501,2.64,0.76,4,1.1501l-0.03,1.0999
		c0.39-0.03,1.18-0.0898,1.57-0.1099c0.6,0.26,1.82,0.78,2.43,1.05l-0.01,1.0898c0.39-0.04,1.17-0.1099,1.56-0.1399
		c0.59,0.27,1.78,0.8101,2.38,1.0798l0.06,0.8201c1.3,0.3401,2.6,0.76,3.91,1.1899l0.09,0.8201c1.3,0.3801,2.61,0.79,3.94,1.1799
		l0.07,0.7002c2.63,1.0898,5.09,2.6399,7.89,3.3699l0.09,0.6699c1.17,0.4302,2.35,0.8901,3.55,1.4001
		c1.26,0.99,2.78,1.55,4.37,1.9099l0.04,0.77c1.31,0.3701,2.63,0.8,3.98,1.2l0.07,0.8101c1.3,0.3301,2.61,0.75,3.93,1.1799
		l0.09,0.8201c1.31,0.3401,2.63,0.74,3.98,1.1301l0.02,0.8499c0.61,0.26,1.84,0.77,2.45,1.03c0.38-0.05,1.16-0.1299,1.54-0.1699
		l0.02,1.1199c1.3199,0.3,2.64,0.6902,3.98,1.1101l0.09,0.8c1.31,0.3398,2.62,0.74,3.95,1.1399l0.07,0.8101
		c3.13,0.6099,5.66,2.78,8.8,3.4099l0.06,0.79c1.32,0.3301,2.66,0.73,4.03,1.0801l0.01,0.8499c1.31,0.3401,2.62,0.73,3.96,1.1101
		l0.1,0.76c3.15,0.6599,5.73,2.8398,8.92,3.3899l0.02,1.04c0.46-0.0801,1.38-0.24,1.83-0.3201l0.34,1.1902
		c0.4601-0.0801,1.3701-0.25,1.8201-0.3301l0.05,1.0901c3.1399,0.6099,5.72,2.74,8.8899,3.3398l0.03,0.79
		c1.3301,0.29,2.66,0.6599,4.02,1.03l0.0699,0.8301c1.6101,0.4199,3.2301,0.8899,4.88,1.2998l0.04,0.8401
		c1.3201,0.3501,2.66,0.75,4.02,1.0801l0.03,0.8101c3.1699,0.5498,5.7999,2.6099,8.95,3.22l0.04,0.78
		c3.1699,0.5398,5.78,2.7,8.97,3.23l0.04,0.74c3.1599,0.51,5.77,2.95,9.1499,2.3699c-0.08-0.55-0.25-1.6399-0.34-2.1799l1.03-0.0701
		c0.17-3.01,1.09-5.8999,1.23-8.8899l0.87-0.1301c0.0801-1.1899,0.1901-2.3499,0.3301-3.48c0.5099-1.45,0.71-2.97,0.7999-4.45
		l0.8101-0.01c0.12-4.01,1.49-7.79,2.4399-11.6201c0.89-4.3298,2.34-8.5298,2.91-12.9199c1.41-3,1.5499-6.4099,2.65-9.51
		c1.5599-7.3599,4.09-14.53,5.1699-21.97l0.8301,0.02c0.09-1.23,0.21-2.4299,0.35-3.6001c0.39-1.2898,0.6799-2.6199,1.04-3.8599
		c1.09-2.7,1.4299-5.6001,1.8199-8.4399l0.78-0.1702c0.47-4.99,2.5699-9.6199,3.3099-14.5598c2.3201-3.0701-0.0499-6.4802-1.46-9.28
		l-0.65-0.1001c-0.42-0.96-0.83-1.8799-1.22-2.78c-1.5601-2.29-3.13-4.5999-4.0701-7.1899l-0.58-0.1201
		c-1.08-2.5498-2.45-4.96-4.04-7.1899c-1.49-3.3599-3.85-6.21-5.4399-9.5c-1.4-2.3499-3.16-4.52-3.91-7.1699l-0.66-0.03
		c-1.09-2.5601-2.46-4.96-4.08-7.1899c-0.42-0.96-0.8199-1.9102-1.21-2.8201l-0.67-0.1001c-0.76-2.49-2.6899-4.3699-3.4399-6.8198
		l-0.61-0.0901c-0.9301-2.4199-2.53-4.48-3.41-6.8899l-0.7001-0.0801c-0.3999-1.03-0.7699-2.04-1.1399-3.03l-0.7301-0.0701
		c-0.22-0.5698-0.6699-1.6899-0.8999-2.26c-0.9801-1.7-2.01-3.3398-3.0801-4.9399c-1.22-2.1799-2.52-4.3-3.46-6.5801l-0.7-0.0999
		c-0.38-1.05-0.75-2.0701-1.1001-3.0601l-0.6899-0.1399c-1.0601-2.3201-2.42-4.47-3.47-6.77l-0.5901-0.1401
		c-0.77-2.49-2.75-4.3599-3.3999-6.8699l-0.77-0.03c-0.37-1.04-0.73-2.0701-1.0701-3.0801l-0.74-0.0798
		c-0.48-1.1702-0.98-2.3201-1.48-3.4102c-0.8101-1.0898-1.48-2.23-1.9399-3.4399l-0.6101-0.0801
		c-0.6699-1.6499-1.5-3.2-2.3899-4.6899c-0.5701-0.8701-1.13-1.72-1.6801-2.53c-0.4301-0.9399-0.84-1.8499-1.21-2.76l-0.77-0.0801
		c-0.4501-1.2798-0.9-2.5198-1.3301-3.74l-0.6499-0.1299c-0.5801-1.2-1.17-2.3101-1.8101-3.4099
		c-1.2999-2.1301-2.72-4.1902-3.59-6.5l-0.72-0.0801c-0.37-1.04-0.7301-2.0601-1.0801-3.05l-0.7999-0.0701
		c-0.4501-1.2898-0.91-2.5498-1.3301-3.7898l-0.84-0.05c-0.36-1.0701-0.71-2.1101-1.04-3.1201l-0.79,0.04
		c-0.63-2.54-2.61-4.4399-3.38-6.9099l-0.59-0.0801c-1.14-2.5701-2.54-5.01-4.09-7.3401c-0.4-0.9199-0.79-1.8198-1.16-2.7
		l-0.76-0.03c-0.68-2.52-2.68-4.3699-3.4-6.8398l-0.59-0.1301c-0.9-2.4099-2.52-4.4299-3.46-6.79l-0.69-0.0999
		c-0.38-1.0601-0.75-2.0901-1.11-3.1001l-0.72-0.0499c-0.87-2.4401-2.33-4.5801-3.45-6.87l-0.65-0.05
		c-0.45-2.63-2.88-4.34-3.26-6.97l-0.8,0.04c-0.38-1.05-0.75-2.0901-1.11-3.0901l-0.67-0.14c-1.04-2.34-2.47-4.47-3.47-6.7999
		l-0.57-0.12c-0.87-2.4301-2.73-4.37-3.41-6.8401l-0.77-0.0199c-0.38-1.0601-0.74-2.0901-1.09-3.1101l-0.74-0.0699
		c-0.87-2.42-2.36-4.52-3.43-6.8199l-0.58-0.12c-0.8199-2.4701-2.71-4.37-3.43-6.8501l-0.73-0.0499
		c-0.37-1.05-0.74-2.0801-1.09-3.0801l-0.7599-0.0599c-0.41-1.55-1.13-2.9401-2.12-4.14c-0.4301-0.9301-0.84-1.84-1.22-2.74
		l-0.66-0.0701c-0.89-2.4299-2.4901-4.48-3.47-6.83l-0.71-0.0699c-0.36-1.0601-0.72-2.0901-1.0601-3.11l-0.77-0.03
		c-0.68-2.52-2.57-4.4501-3.34-6.9l-0.65-0.0601c-0.8-2.47-2.52-4.47-3.46-6.85l-0.56-0.13c-1.03-2.35-2.49-4.47-3.43-6.84
		l-0.7-0.0599c-0.39-1.05-0.77-2.0901-1.13-3.1001l-0.74-0.02c-0.96-2.62-2.41-4.99-3.95-7.2699c-1.6-3.3501-4-6.24-5.41-9.67
		l-0.63-0.04c-0.7-2.5299-2.54-4.5-3.44-6.9099l-0.58-0.0701c-1.11-2.5499-2.4-5.02-4.09-7.2c-0.42-0.97-0.81-1.91-1.2-2.8301
		l-0.78,0.02c-0.45-1.2899-0.9-2.5599-1.31-3.8099c-2.54-0.9301-5.21-1.3101-7.88-1.0801v-0.9199
		c-3.51-0.0601-7.02-0.1901-10.5-0.52c-7.13-0.9301-14.21-2.53-21.42-2.6801l-0.02-0.8999c-4.5-0.1201-9.05-0.7101-13.39-1.8301
		c-3.54-0.35-7-1.3099-10.55-1.3099l-0.11-0.87c-1.83-0.0801-3.64-0.2101-5.43-0.37c-8.11-1.8-16.23-3.8301-24.48-4.77l-0.02-0.8
		c-2.73-0.23-5.39-0.88-8.1-1.15l0.0699-0.8099c-1.84-0.09-3.7-0.24-5.42-0.88C819.22,1897.72,817.57,1897.62,816.75,1897.5601
		 M653.7,1926.64c-9.02,16.35-15.43,33.96-21.32,51.63c-13.05,40.28-22.76,81.52-32.4,122.72
		c-23.34,101.8899-44.83,204.26-72.56,305.0801c-24.77,90.52-53.93,180.0999-92.58,265.72
		c-32.26,70.8999-71.15,139.4199-121.71,198.98c10.9-21.45,21.24-43.2,29.97-65.6301c16.82-42.75,28.79-87.5298,34.05-133.21
		c6.95-58.3198,2.49-117.73-10.98-174.8198c-12.54-53.3801-32.21-104.8701-55.44-154.4602c-2.54,13.1101-3.91,26.4502-6.35,39.5901
		c-13.83,83.21-33.18,165.4199-55.3,246.79c-23.78,87.03-51.04,173.0901-80.68,258.3c-27.51,78.8398-57.02,156.98-88.4,234.3599
		c126.42,4.8301,254.09-11.7,373.94-52.79c77.22-26.2898,150.98-62.6399,219.05-107.5898c62.26-41.0601,119.73-89.24,171.68-142.73
		c55.67-57.25,105.02-120.52,148.26-187.6301c44.55-69.27,82.81-142.53,115.06-218.29c-96.6-25.26-189.15-66.98-270.7-124.77
		c-21.11-14.6099-41.03-30.8298-60.85-47.0999c-1.18,13.8699-3.52,27.6199-6.46,41.22c-11.51,51.99-33.52,101.05-59.77,147.1599
		c-41.23,71.6401-92.91,136.6802-148.02,198.0601c-7.79,8.23-15,17.03-23.23,24.8201c36.09-59.4001,66.9-122.1799,89.43-188
		c17.98-51.79,30.73-105.25,40.81-159.0901c13.46-71.0801,23.28-142.98,42.12-212.9299c9.91-37.1401,22.28-73.63,37.41-108.97
		c-26.2-19.8301-52.55-39.4601-78.79-59.2201c-3.4-2.1799-6.23-5.37-9.95-6.9199C657.37,1919.78,655.67,1923.33,653.7,1926.64z"/>
	<path fill="#FEC3B1" stroke="#FEC3B1" stroke-width="0.5" d="M1653.35,42.49c3-2.16,7.16-0.63,10.66-1.03
		c9.38-0.42,18.64,1.07,27.99,1.52c13.02,0.58,26.0699,0.39,39.1,0.65c11.89,1.64,23.9301,1.58,35.92,1.81
		c7.6799,0.16,15.4399-0.49,23.04,0.88c13.2699,1.09,26.61,1.1,39.9199,1.14c5.75-0.11,11.4401,0.92,17.1801,1.23
		c2.5599,0.54,6.2999,0.24,7.4199,3.23c-3.08-1.15-6.24-2.32-9.5499-2.33C1781.14,47.19,1717.24,44.88,1653.35,42.49z"/>
	<path fill="#FFFFFF" stroke="#FFFFFF" stroke-width="0.5" d="M1292.01,50.92c2.08-1.34,4.65-0.81,7-0.88
		c101.3,4.5,202.59,8.97,303.89,13.44c62.38,2.84,124.78,5.37,187.15,8.39C1771.87,78.19,1753.47,85.9,1739.46,99.54
		c-11.08,10.34-18.6599,24.44-20.5599,39.52c-2.3,15.72,0.76,31.65,5.5,46.64c-65.14-6.16-130.28-12.39-195.42-18.61
		c-2.71,0.16-4.1699-2.41-6-3.93c-12.11-11.28-25.95-21.55-42.14-25.94c-12.23-3.28-25.5399-1.78-36.83,3.89
		c-7.72,3.51-14.47,8.7-21.34,13.58c-20.89-1.21-41.78-3.41-62.67-4.99c-36.52-3.06-73.03-6.11-109.55-9.11
		c-3.1899-11.88-5.36-24.38-3.34-36.65c1.54-10.78,6.6801-20.84,13.79-29.01C1269.59,65,1280.53,57.31,1292.01,50.92
		 M1306.3101,70.27c-6.7301,6.94-13.75,13.61-20.4,20.61c32.6799,1.9,65.39,3.43,98.1,5.12
		c102.6899,5.26,205.38,10.52,308.0699,15.75c2.38,0.38,4.01-1.7,5.77-2.94c6.65-5.6,13.91-10.49,20.27-16.41
		c-134.6801-7.8-269.38-15.3-404.0699-23.06C1311.51,69.52,1308.3,68.21,1306.3101,70.27z"/>
	<path fill="#ABA7F4" stroke="#ABA7F4" stroke-width="0.5" d="M1306.3101,70.27c1.99-2.06,5.2-0.75,7.74-0.93
		C1448.74,77.1,1583.4399,84.6,1718.12,92.4c-6.36,5.92-13.62,10.81-20.27,16.41c-1.76,1.24-3.39,3.32-5.77,2.94
		C1589.39,106.52,1486.7,101.26,1384.01,96c-32.71-1.69-65.42-3.22-98.1-5.12C1292.5601,83.88,1299.58,77.21,1306.3101,70.27z"/>
	<path fill="#FEC3B1" stroke="#FEC3B1" stroke-width="0.5" d="M1224.28,85.49l1.2899-0.26c-12.3199,29.94-11.61,65.14,2.5,94.35
		c-2.9399-1.21-3.3999-4.61-4.4399-7.22c-2.99-8.56-5.75-17.26-6.71-26.31c-2.28-8.18-1.24-16.74-1.4-25.12
		C1217.5699,108.95,1219.14,96.66,1224.28,85.49z"/>
	<path fill="#FEC3B1" stroke="#FEC3B1" stroke-width="0.5" d="M972.14,162.75c8.91-1.35,17.98-1.37,26.97-0.87
		c10.53,1.99,21.48,0.32,31.9301,2.8c17.77,2.04,35.25,6.24,52.39,11.35l-0.62,1.13c-70.5101-22.07-148.35-17.43-216.8,9.75
		c-0.57-0.04-1.72-0.12-2.29-0.16c22.9301-9.63,47.14-16.39,71.6801-20.27c4.0099-1.53,8.36-0.74,12.48-1.7
		C955.76,162.44,964.08,163.87,972.14,162.75z"/>
	<path fill="#FFFFFF" stroke="#FFFFFF" stroke-width="0.5" d="M1439.36,170.44c11.47-3.46,23.65-5.45,35.59-3.49
		c16.99,2.42,32.24,11.84,44.2101,23.83c15.83,15.78,27.25,35.34,36.9199,55.33c-27.8199-13.27-56.34-25.41-86.2-33.31
		c-27.46,62.39-54.65,124.9-82.08,187.3c-19.26,1.38-38.54,2.57-57.8101,3.85C1366.55,326.16,1402.74,248.2,1439.36,170.44z"/>
	<path fill="#FFFFFF" stroke="#FFFFFF" stroke-width="0.5" d="M959.88,199.19c38.31-5.76,78-3.79,115.16,7.49
		c42.8099,12.73,81.9399,38.75,108.61,74.77c26.51,35.19,40.5399,78.58,44.35,122.19c-11.97,2.43-24.03,4.45-36.0601,6.52
		c-11.3199,2.12-22.87,4.26-33.24,9.48c-8.6899,4.21-15.8199,11.29-20.3999,19.76c-6.01,11.11-8.4601,23.68-10.24,36.06
		C1066.67,461.97,1005.1,449.2,943.19,438.34c12.2-22.42,24.85-44.6,37.3-66.89c27.16,1.18,54.3201,2.74,81.49,3.6
		c-14.0699-5.13-28.49-9.29-42.96-13.17c-20.82-5.3-42.16-10.21-63.76-9.53c-6.24,6.04-11.56,13.04-17.6,19.32
		c-16.45,18.5-32.96,36.94-49.45,55.4c-1.64,2.42-4.83,0.59-7.14,0.53c-58.73-9.73-117.66-18.19-176.69-25.83
		c16.56-35.82,38.14-69.44,64.87-98.54C818.8,248.67,886.67,210.06,959.88,199.19 M952.68,217.13c0.86,0.88,1.73,1.76,2.7,2.55
		c14.19,11.07,26.71,25.54,31.65,43.17c3.92,12.96,3.22,26.97-0.4901,39.89c-3,11.86-9.14,22.53-14.77,33.26
		c28.31,5.62,56.8199,11.18,83.96,21.23c8.61,3.25,17.1901,6.91,24.8201,12.12c3.74,2.92,7.97,5.94,9.73,10.53
		c-1.3301,24.5-3.26,48.98-4.53,73.49c10.12,0.2,20.26,0.07,30.39,0.07c6.0499-18.51,17.96-35.25,34.45-45.82
		c17.02-10.9,37.26-15.57,57.23-16.82c-1.7799-10.39-4.0299-20.69-6.7999-30.86c-9.27-34.63-25.6901-68.17-51.6-93.39
		c-14.2001-13.84-30.88-25.08-49.02-33.05c-28.98-13.05-60.92-18.12-92.4901-19.05C989.47,214.13,970.96,214.63,952.68,217.13
		 M1000.99,386.31c13.79,6.72,27.92,12.72,41.67,19.53c-3.38,11.72-6.87,23.4-10.35,35.09c12.1799,3.09,24.34,6.27,36.59,9.09
		c-0.25-18.79-0.84-37.57-1.52-56.34C1045.22,391.52,1023.15,388.49,1000.99,386.31z"/>
	<path fill="#ABA7F4" stroke="#ABA7F4" stroke-width="0.5" d="M952.68,217.13c18.28-2.5,36.79-3,55.23-2.68
		c31.57,0.93,63.5101,6,92.4901,19.05c18.14,7.97,34.8199,19.21,49.02,33.05c25.9099,25.22,42.33,58.76,51.6,93.39
		c2.77,10.17,5.02,20.47,6.7999,30.86c-19.97,1.25-40.21,5.92-57.23,16.82c-16.49,10.57-28.4,27.31-34.45,45.82
		c-10.13,0-20.27,0.13-30.39-0.07c1.27-24.51,3.2-48.99,4.53-73.49c-1.76-4.59-5.99-7.61-9.73-10.53
		c-7.63-5.21-16.2101-8.87-24.8201-12.12c-27.14-10.05-55.65-15.61-83.96-21.23c5.63-10.73,11.77-21.4,14.77-33.26
		c3.71-12.92,4.41-26.93,0.4901-39.89c-4.94-17.63-17.46-32.1-31.65-43.17C954.41,218.89,953.54,218.01,952.68,217.13z"/>
	<path fill="#FEC3B1" stroke="#FEC3B1" stroke-width="0.5" d="M1274.87,216.38c35.34,6.97,70.8199,13.46,106.0601,20.81
		c-1.4701,6.31-5.0901,11.9-7.4,17.93c-1.02-1.87,0.2899-3.71,1.0399-5.4c1.7401-3.59,3.3-7.27,4.9301-10.91
		c-0.85-0.6-1.72-1.13-2.62-1.58c-11.91-1.96-23.72-4.51-35.58-6.78c-12.0701-2.66-24.3301-4.33-36.3601-7.16
		c-9.6799-1.62-19.22-3.85-28.9299-5.27C1275.72,217.61,1275.16,216.79,1274.87,216.38z"/>
	<path fill="#ABA7F4" stroke="#ABA7F4" stroke-width="0.5" d="M772.55,242.8c0.06-0.05,0.17-0.14,0.22-0.19
		C772.72,242.66,772.61,242.75,772.55,242.8z"/>
	<path fill="#ABA7F4" stroke="#ABA7F4" stroke-width="0.5" d="M1195.15,244.69c0.0399,0.04,0.13,0.13,0.1699,0.18
		C1195.28,244.82,1195.1899,244.73,1195.15,244.69z"/>
	<path fill="#ABA7F4" stroke="#ABA7F4" stroke-width="0.5" d="M754.73,258.88c0.04-0.03,0.11-0.1,0.14-0.13
		C754.84,258.78,754.77,258.85,754.73,258.88z"/>
	<path fill="#ABA7F4" stroke="#ABA7F4" stroke-width="0.5" d="M746.69,266.95c0.07-0.07,0.19-0.2,0.25-0.27
		C746.88,266.75,746.76,266.88,746.69,266.95z"/>
	<path fill="#FEC3B1" stroke="#FEC3B1" stroke-width="0.5" d="M1574.79,279.71c2.08-4.38,4.11-8.78,6.1799-13.16
		c50.1901,4.06,100.41,7.77,150.61,11.82c-3.13,1.2-6.45,0.46-9.6499,0.32c-4.3-0.34-8.66,0.17-12.88-0.85
		c-9.77-2.03-19.8601-0.32-29.5901-2.45c-7.8199-1.19-15.85-0.03-23.5499-1.99c-5.9601-0.72-11.98-0.72-17.9601-0.88
		c-4.38-0.12-8.6499-1.23-13-1.57c-6.6399-0.76-13.3999,0.17-19.97-1.25c-7.7999-1.03-15.6899-1.24-23.5499-1.35
		c-1.79,3.98-3.7401,7.88-5.5901,11.82L1574.79,279.71z"/>
	<path fill="#FEC3B1" stroke="#FEC3B1" stroke-width="0.5" d="M1731.89,278.39c6.01,0.27,12,1.03,18.02,1.36
		c10.2899,1.02,20.7799,0.87,30.85,3.52c15.41,2.71,31.45,1.05,46.17-4.17c0.58,0.05,1.74,0.16,2.3199,0.22
		c-8.33,3.51-17.27,5.65-26.3101,5.98c-7.6699,1.17-15.34-0.16-22.96-0.82c-2.76-0.38-5.34-1.5-8.08-1.81
		c-2.84-0.29-5.6901,0.07-8.48-0.41c-8.41-2.08-17.16-1.31-25.7201-1.88C1735.67,280.05,1733.24,280.18,1731.89,278.39z"/>
	<path fill="#FEC3B1" stroke="#FEC3B1" stroke-width="0.5" d="M1358.27,286.45l1.38-0.17c-8.8201,19.67-17.5601,39.39-26.36,59.07
		c-0.38-3.66,1.8099-6.75,3.1599-9.97C1343.63,319.03,1350.98,302.72,1358.27,286.45z"/>
	<path fill="#FEC3B1" stroke="#FEC3B1" stroke-width="0.5" d="M674.04,373.04c2.04-4.06,3.29-8.59,6.06-12.22l1.13-0.36
		c-5.55,11.33-10.59,22.92-15.13,34.7c-37.43,8.45-74.79,17.19-112.21,25.63c-1.08,0.19-2,0.65-2.77,1.39
		c0.11,3.03,2.89,5.23,4.44,7.68c-3.15-0.26-3.97-4.14-5.89-6.15c-0.18-4.21,4.28-4.42,7.36-4.79
		c35.45-8.12,70.8799-16.37,106.36-24.35c1.86-0.37,2.38-2.4,3.16-3.86C669.04,384.82,671.14,378.76,674.04,373.04z"/>
	<path fill="#ABA7F4" stroke="#ABA7F4" stroke-width="0.5" d="M1530.5601,373.62c0.24-0.47,0.72-1.4,0.96-1.87l0.46,0.83l-0.5,0.96
		L1530.5601,373.62z"/>
	<path fill="#FB3D00" stroke="#FB3D00" stroke-width="0.5" d="M1264.4,376.15c0.3099,0.31,0.91,0.92,1.21,1.23
		c4.52-0.3,8.9301,0.86,13.36,1.58c10.4501,1.81,20.87,3.82,31.29,5.84c1.61,0.3,3.14,0.98,4.62,1.72
		c-1.26,2.98-2.53,5.95-3.74,8.94c-7.03,0.66-14.0701,0.97-21.11,0.97c-7.23-0.17-14.3301,1.41-21.55,1.16
		c-0.48-2.53-0.9199-5.06-1.34-7.59C1266.1,385.4,1265.62,380.7,1264.4,376.15z"/>
	<path fill="#ABA7F4" stroke="#ABA7F4" stroke-width="0.5" d="M1000.99,386.31c22.16,2.18,44.23,5.21,66.39,7.37
		c0.6801,18.77,1.27,37.55,1.52,56.34c-12.25-2.82-24.41-6-36.59-9.09c3.48-11.69,6.97-23.37,10.35-35.09
		C1028.91,399.03,1014.78,393.03,1000.99,386.31z"/>
	<path fill="#FFFFFF" stroke="#FFFFFF" stroke-width="0.5" d="M613.9,430.46c20.84-3.37,42.0099-4.01,63.09-4.06
		c49.07,0.42,97.95,5.65,146.53,12.25c99.4,13.87,197.74,34.31,295.62,56.34c-5.33,9.74-11.21,19.17-16.71,28.81
		c-120.16-23.06-240.35-45.96-360.5201-68.99C699.23,446.77,656.61,438.33,613.9,430.46z"/>
	<path fill="#FFFFFF" stroke="#FFFFFF" stroke-width="0.5" d="M1185.98,434.41c53.35-1.95,106.6901-3.95,160.03-5.94
		c11.95-0.33,24.0599-1.69,35.86,0.98c25.23,4.25,48.48,21.03,58.92,44.6c51.49,100.57,102.98,201.13,154.46,301.7
		c1.1801,2.09,1.92,4.62,3.77,6.25c69.85,41.49,140.24,82.09,211.03,121.95c63.5499,35.81,127.45,71,190.98,106.86
		c50.1499,28.61,100.3499,57.3799,147.72,90.48c38.55,27.0299,75.1399,57.51,104.8701,94.22c14.5,17.87,27.7,36.88,38.6799,57.13
		c10.6399,20.28,18.04,42.13,23.6099,64.2999c7.27,29.4301,11.1702,59.6901,11.6501,90c0.24,21.7301-1.3,43.5701-5.9202,64.8401
		c-3.97,17.6599-10.0398,35.25-20.8899,49.9299c-5.27,6.8-11.52,13.0901-19.24,17.0601c-38.77,21.3199-81.21,37.37-125.5601,41.2
		c-28.3298,2.54-57.1199-0.36-84.4099-8.35c-44.1901-12.8199-83.6001-38.21-118.4601-67.73
		c-42.0699-35.91-78.5199-77.8101-113.0399-120.88c-41.8501-52.5601-80.8101-107.34-120.3301-161.65
		c-68.6-94.5499-138.7-188.6799-220.97-271.95c-40.36-1.0699-80.24-11.35-116.65-28.64c-34.1699-16.18-65.37-38.2-93.4099-63.47
		c-28.67-25.76-54.0901-54.96-77.04-85.88c-1.85-2.92-5.74-0.48-8.49-0.73c-32.25,2.65-64.65,0.99-96.9-0.63
		c3.8,11.99,7.96,23.87,11.65,35.9c-9.3301,23.22-19.91,46-29.37,69.2c-10.26-31.52-19.86-63.25-29.92-94.8199
		c-2.13-5.56-1.36-11.63-1.13-17.4301c1.42-22.89,11.8201-44.54,26.78-61.67c2.79-3.1,5.35-6.54,8.7-9.05
		c40.29-3.94,80.67-7.19,120.99-10.97c4.1901-0.54,9.1101-1.66,11.3201-5.67c1.77-3.45-0.86-7.28-3.92-8.86
		c-4.02-2.46-8.84-2.2-13.34-2.28c-33.02-0.7-66.03-1.48-99.05-2.19c-6.63,0.47-10.89-6.17-12.6699-11.72
		c-5.5901-21.28,10.73-45.52,32.61-48.19c46.0399-1,92.1-2.01,138.15-3.03c7.22,0.17,16.5299-2.59,18.58-10.41
		c0.63-3.74-2.95-7.43-6.61-7.36c-47.02-1.37-94.04-2.76-141.0601-4.14c-5.25,0.06-10.33-3.19-12.5699-7.91
		c-2.8-5.51-2.36-12.03-0.85-17.84c4.02-14.16,14.88-26.68,29.09-31.18c4.92-1.69,10.1801-1.22,15.3-1.42
		c46.0699-1.35,92.1499-2.56,138.22-3.93c4.91-0.1201,10.24,0.35,14.63-2.3c2.23-1.16,3.76-3.96,2.8099-6.42
		c-1.26-2.96-4.3199-5.08-7.5-5.33c-42-1.6-84-3.13-126-4.75c-7.75-0.48-15.5699-0.18-23.27-1.04c-4.99-2.76-7.99-8.01-9.7799-13.26
		c-4.4601-13.67-0.48-29.96,10.45-39.49C1173.5,438.47,1179.48,435.04,1185.98,434.41 M1406.47,485.11
		c0.16,8.26,0.17,16.61-1.83,24.68c-2.38,11.15-8.1801,21.57-16.55,29.34c-5.23,5.45-12.12,8.8-18.71,12.26
		c2.9399,5.37,5.64,11.29,4.72,17.59c-0.1899,5.83-3.25,10.98-6.52,15.6c-6.2,7.87-14.37,13.89-22.9099,18.99
		c-2.14,1.18-4.54,2.04-6.0901,4.02c3.8401,6.22,6.66,13.1299,7.55,20.43c0.6899,7.54-1.98,15.38-7.3,20.8
		c-5.2899,5.43-11.6899,9.74-18.6,12.81c1.01,4.8,3.35,9.2,4.17,14.06c2.48,11.03,0.01,23.03-6.49,32.25
		c-5.64,6.09-11.2001,12.57-18.6801,16.47c0.01,0.96,0.28,1.81,0.8,2.56c12.96,12.71,25.59,25.75,39.02,37.96
		c27.47,24.99,56.49,48.63,88.63,67.37c19.87,11.28,40.9199,20.93,63.34,25.84c7.83,1.47,15.77,3.07,23.78,2.47
		c12.61-19.56,25.83-38.71,38.8099-58.03c4.99-8.42,11.49-15.89,16.08-24.55c-8.5699-10.21-15.8999-21.36-23.1299-32.54
		c-31.9601-51.22-59.7401-104.88-87.91-158.23C1441.0699,553.3,1423.72,519.23,1406.47,485.11 M1608.66,826.5
		c-7.01,5.66-12.92,12.49-19.62,18.5c-5.9401,5.75-12.14,11.25-17.88,17.19c0.0599,0.31,0.1699,0.93,0.23,1.25
		c12.27,13.1,26.04,24.7,38.66,37.45c5.6899,5.35,11.9399,10.08,17.46,15.63c21.46,19.61,43.12,38.99,65.36,57.71
		c35.37,30.1,71.3,59.53,108.1901,87.75c8.8899,6.78,17.5299,13.9,26.72,20.27c76.4,57.8,156.14,110.96,235.74,164.1899
		c29.79,20.0801,59.5901,40.17,88.5801,61.39c36.23,27.2201,72.3799,55.92,99.1199,92.9401
		c6.1501,8.2999,11.05,17.4299,15.9199,26.53c2.3801-3.17,3.01-7.2001,4.4302-10.8201c9.0798-28.1899,13.0698-58.37,8.8699-87.8199
		c-3.0601-24.3-11.3999-47.73-22.8198-69.3201c-22.8201-42.7799-56.7102-78.36-92.8901-110.12
		c-11.1199-10.2899-23.3-19.2899-35.0601-28.8099c-11.3799-9.11-23.1099-17.73-35.0598-26.0601
		c-12.3201-9.15-25.24-17.4299-37.9202-26.0599c-76.6399-50.5601-157.22-94.77-238.45-137.45
		c-50.23-26.09-100.65-51.81-151.5599-76.54c-18.4701-9.35-37.3201-17.94-55.7201-27.42
		C1610.21,826.47,1609.45,826.34,1608.66,826.5 M1583.11,1016.91c13.92,17.98,28.89,35.1201,43.64,52.43
		c50.1,57.6901,103.41,112.77,161.52,162.4701c46.62,39.7899,96.38,76.1599,150.03,105.9299c50.26,27.86,104.1399,49.83,160.53,61.5
		c13.8198,2.6801,27.7,5.47,41.77,6.4c-30.8601-9.58-60.7102-22.21-89.6602-36.51c-49.7599-24.6-97.0399-53.91-142.8099-85.24
		c-52.39-36.02-102.8199-74.8201-151.96-115.15C1696.79,1120.09,1639.52,1068.95,1583.11,1016.91z"/>
	<path fill="#FB3D00" stroke="#FB3D00" stroke-width="0.5" d="M1498.3101,442.26c38.1499,15.02,75.0699,33.11,110.99,52.84
		c133.7999,73.68,251.26,176.65,342.22,299.33c38.03,51.3,71.48,106.01,99.74,163.29c0.79,1.52,1.27,3.17,1.3501,4.92
		c-16.6201-13.7-34.6702-25.73-53.9601-35.34c-1.5601-2.6-2.8101-5.36-3.9-8.16c-0.54-1.42-1.0601-2.81-1.5699-4.19
		c-1.6101-3.21-2.9701-6.53-4.39-9.81c-1.78-4.12-3.8201-8.12-5.5901-12.23c-21.88-46.29-49.8999-90.47-87.6599-125.47
		c-28.7101-27.02-63.29-47.58-100.4501-60.65c-2.0399-0.61-4.0299-1.28-5.98-2.05c-1.73-0.51-3.45-1.03-5.14-1.53
		c-4.86-1.84-9.99-2.79-14.9-4.42c-16.8099-4.37-33.9299-7.41-51.08-9.97c-13.65-1.39-27.26-3.22-40.98-3.6
		c-7.89-1.52-16.02-0.29-23.97-1.35c-25.74-0.65-51.51-0.15-77.26-0.21c-7.1801-14.45-13.85-29.14-20.99-43.6
		c-9.78-21.09-19.75-42.09-29.5901-63.15c-14.6-30.8799-29.2-61.77-45.2-91.95c-0.73-1.2-0.63-2.66,0.01-3.86
		c1.52-3.43,3.35-6.72,4.79-10.19C1489.42,461.42,1493.73,451.78,1498.3101,442.26z"/>
	<path fill="#FB3D00" stroke="#FB3D00" stroke-width="0.5" d="M328.49,689.43c88.18-91.65,192.87-167.39,307.6-222.28
		c8.2-3.19,16.73,1.83,25.03,0.6c10.89,1.11,21.78,1.98,32.7,2.66c-1.12,10.59-3.22,21.08-4.96,31.59
		c-1.01,5.1-1.96,10.63,0.66,15.44c4.08,8.02,11.75,13.79,19.72,17.61c0.07,0.65,0.15,1.31,0.24,1.98
		c-13.89,15.67-27.03,31.99-40.61,47.92c-5.14,6.78-11.27,12.67-17.37,18.56c-6.13,6.17-11.43,13.29-14.8,21.35
		c-1.59,4.87-2.8,9.95-2.04,15.11c2.33,11.6801,12.82,19.19,23.27,23.29c1.02,0.26,2.04,0.53,3.08,0.81
		c0.97,0.38,1.95,0.77,2.94,1.16c6.87,1.62,13.79,3.22,20.89,3.39c-1.14,5.01-4.55,9.05-6.52,13.73c-1.74,4.13-5.34,7.82-4.85,12.59
		c4.63,3.83,8.6,8.39,12.9301,12.56c2.85,3.05,6.37,5.57,8.37,9.34c-4.54,2.56-8.76,5.94-11.58,10.37
		c-2.45,3.84-2.11,9.21,0.85,12.7c3.59,4.44,8.31,8,13.61,10.17c-0.09,1.54-0.57,3.01-1.4301,4.3
		c-3.3199,5.39-6.37,10.96-9.02,16.71c-1.5,3.27-2.78,6.62-4.01,9.99c-0.85,2.61-1.54,5.27-2.42,7.87
		c-1.09,3.95-1.02,8.1-2.05,12.06c-0.46,5.42,0.91,10.76,1.97,16.03c1.88,5.12,4.5,10.01,8.26,14.01
		c8.66,9.56,20.92,14.59,33.04,18.15c6.59,1.73,13.33,2.74,20.02,4.02c5.66,0.3701,11.28,1.39,16.98,1.28
		c6.35-0.13,12.62,1.3,18.98,0.9c6.39,0.39,12.67-1.11,19.05-0.92c7.03,0.09,13.99-0.96,21.01-1.23c3.8799-1.1,7.95-0.91,11.93-0.76
		c3.3,7.65,7.61,14.81,11.2599,22.3c12.34,24.12,26.39,48.26,47.3701,65.93c-0.63,3.1201-5.1,3.02-7.45,4.5
		c-2.75,1.2-5.49,2.44-8.27,3.57c-1.93,0.8-3.87,1.59-5.78,2.43c-9.67,4.03-19.42,7.85-29.03,12c-1.39,0.52-2.77,1.04-4.15,1.5601
		c-1.94,0.83-3.89,1.62-5.84,2.43c-1.67,0.64-3.33,1.3-4.97,1.99c-7.77,3.12-15.43,6.48-23.21,9.56
		c-6.26,2.79-12.66,5.28-18.92,8.07c-3.3,1.46-6.58,2.94-9.87,4.39c-18.28,8.2-36.28,17.08-53.52,27.3101
		c-30.54,17.97-58.2,40.99-80.59,68.5c-26.01,31.49-45.62,67.7-62.21,104.86c-1.23,3.0499-2.59,6.04-4,9.02
		c-0.52,1.38-1.04,2.77-1.54,4.1799c-0.85,1.89-1.66,3.8101-2.47,5.74c-2.73,6.65-5.36,13.3501-8,20.05
		c-1.73,5.11-3.81,10.08-5.54,15.2c-2.43,5.87-4,12.05-6.52,17.9c-0.09,0.51-0.28,1.54-0.37,2.0601
		c-0.54,1.27-1.04,2.59-1.55,3.8999c-0.57,2.03-1.22,4.04-1.94,6.03c-0.65,2.01-1.29,4.03-1.97,6.04
		c-1.84,6.02-4.02,11.9399-5.67,18.03c-1.59,4.59-2.84,9.2899-4.4,13.8999c-0.55,2.3501-1.22,4.6801-2,6.9801
		c-0.88,3.0499-1.74,6.12-2.71,9.1599c-1.36,0.36-2.72,0.74-4.06,1.16c-2.35,0.55-4.69,1.2-6.98,1.96
		c-5.83,1.5-11.47,3.63-17.17,5.55c-1.96,0.79-3.93,1.59-5.87,2.4301c-1.39,0.5099-2.78,1.0299-4.16,1.5599
		c-14.38,6.41-28.33,14.4401-39.42,25.77c-13.31,12.9-22.09,29.87-27.26,47.53c-0.74,2.3099-1.38,4.6599-1.98,7.0299
		c-0.83,2.9401-1.41,5.9501-2.01,8.9601c-1.22,4.24-1.1,8.75-2.4,12.99c-0.55,5.3199-1.19,10.63-1.59,15.97
		c-0.6,2.33-0.77,4.75-0.82,7.16c-28.1,19.87-55.42,41.1-79.46,65.8099c-28.17,28.28-52.74,60.9-68.11,97.9601
		c-0.64,1.6699-1.3,3.34-2,5.01c-2.25,5.9299-4.1,11.99-6.01,18.0299c-0.59,2.6801-1.22,5.36-2,8.01
		c-0.64,3.3301-1.2,6.6901-1.98,10.02c-1.34,6.5601-1.22,13.3-2.23,19.92c-0.85,15.85,0.99,31.8199,5.22,47.12
		c1.5,5.37,3.33,10.64,5.39,15.83c4.21,9.9401,9.39,19.48,15.59,28.33c19.25,27.54,47.48,47.7401,78.05,61.05
		c4.73,1.91,9.42,3.9301,14.27,5.53c8.76,3.36,17.84,5.77,26.93,8.0599c7.21,1.9,14.61,2.9601,21.92,4.38
		c11.27,1.54,22.56,3.29,33.96,3.29c8.66,0.86,17.37,1.21,26.09,0.72c1.31-0.3199,2.64-0.52,4-0.58
		c22.52-0.01,44.84-3.55,66.97-7.46c2.97-0.88,6.03-1.4501,9.08-1.9801c2.94-0.86,5.95-1.4399,8.97-2
		c2.59-0.84,5.24-1.49,7.91-2.0299c7.04-1.9701,14.1-3.86,21.1-5.99c8.31-2.7301,16.72-5.2201,24.88-8.39
		c4.45-1.2001,8.5-3.78,13.07-4.4601c3.99,0.49,7.35,3.15,11.1,4.51c2.02,0.86,4.12,1.5601,6.2599,2.13
		c0.09,0.9401,0.1801,1.91,0.28,2.91c-11.46,19.35-21.39,39.59-30.44,60.17c-1.4,2.98-2.72,6.01-3.97,9.0699
		c-3.6,8.2-6.91,16.53-10.04,24.91c-0.69,1.6599-1.34,3.35-1.96,5.0599c-1.36,3.65-2.73,7.29-4.03,10.9701
		c-0.84,2.2599-1.62,4.5499-2.41,6.85c-2.84,7.95-5.32,16.02-7.94,24.0499c-2.83,9.28-5.45,18.63-8.02,27.99
		c-1.9,7.6901-4.02,15.3301-5.6,23.1001c-2.41,10.22-4.49,20.54-6.03,30.9299c-1.25,4.6001-1.16,9.4399-2.37,14.0601
		c-2,16.79-3.34,33.6399-3.21,50.5701c-2.54-0.1101-5.07-0.1902-7.6-0.4102c-3.31-0.8999-6.76-0.71-10.14-1.0798
		c-11.71-1.01-23.32-2.9001-34.9-4.9102c-3.59-1.01-7.3-1.3799-10.96-1.99c-6.33-1.51-12.78-2.55-19.02-4.3899
		c-21.29-4.77-42.22-11.0801-62.89-18.05c-5.68-1.99-11.43-3.77-17.02-5.99c-5.14-1.6501-10.12-3.76-15.2-5.54
		c-10.03-3.9199-20.04-7.8899-29.98-12.02c-4.93-2.2-9.94-4.1899-14.84-6.4299c-19.06-8.23-37.82-17.1602-56.41-26.38
		c-3.27-1.62-6.41-3.61-10.03-4.3101c-0.31,4.96-0.91,9.91-1.37,14.87c-1.47,6.8999-0.9,14.1201-2.44,21.03
		c-0.61,5.6799-0.82,11.4299-1.93,17.05c-0.27,2.24-0.5,4.49-0.89,6.74l-0.44,1c-24.85-31.0601-48.54-63.0901-69.96-96.62
		C156.12,1936.74,120.3,1864.37,93.16,1788.87c-65.98-182.74-80.03-383.62-41.23-573.92C74.95,1101.05,117.14,991.07,175.87,890.81
		C218.55,817.97,269.87,750.18,328.49,689.43z"/>
	<path fill="#FEC3B1" stroke="#FEC3B1" stroke-width="0.5" d="M1406.47,485.11c17.25,34.12,34.6,68.19,52.1801,102.15
		c28.1699,53.35,55.95,107.01,87.91,158.23c7.23,11.18,14.5599,22.33,23.1299,32.54c-4.59,8.66-11.09,16.1299-16.08,24.55
		c-12.98,19.32-26.2,38.47-38.8099,58.03c-8.01,0.6-15.9501-1-23.78-2.47c-22.42-4.91-43.47-14.56-63.34-25.84
		c-32.14-18.74-61.16-42.38-88.63-67.37c-13.4301-12.21-26.0601-25.25-39.02-37.96c-0.52-0.75-0.79-1.6-0.8-2.56
		c7.48-3.9,13.04-10.3799,18.6801-16.47c6.5-9.22,8.97-21.22,6.49-32.25c-0.8201-4.86-3.16-9.26-4.17-14.06
		c6.91-3.07,13.3101-7.38,18.6-12.81c5.3201-5.42,7.99-13.26,7.3-20.8c-0.89-7.3-3.71-14.21-7.55-20.43
		c1.55-1.98,3.9501-2.84,6.0901-4.02c8.5399-5.1,16.71-11.12,22.9099-18.99c3.27-4.62,6.3301-9.77,6.52-15.6
		c0.92-6.3-1.78-12.22-4.72-17.59c6.59-3.46,13.48-6.81,18.71-12.26c8.37-7.77,14.17-18.19,16.55-29.34
		C1406.64,501.72,1406.63,493.37,1406.47,485.11z"/>
	<path fill="#FFFFFF" stroke="#FFFFFF" stroke-width="0.5" d="M786.4,495.82c21.99,0.49,44.0099,2.53,65.54,7.09
		c15.41,3.44,30.96,8.13,44.06,17.23c7.01,5.1,13.73,12.06,14.82,21.06c6.76,3.87,14.1,7.87,18.21,14.77
		c3.0699,5.03,3,11.09,4.25,16.69c9.74,0.76,19.45,2,29.1899,2.58c4.69-6.2,8.77-12.9,13.7-18.96
		c9.06-11.54,18.83-23.08,31.69-30.52c6.09-3.52,13.67-5.77,20.53-3.19c7.27,2.65,11.85,9.58,14.76,16.41
		c5.1699,12.66,6.53,26.5,6.75,40.07c-0.0601,21.98-3.61,44.04-11.01,64.77c-4.34,11.81-9.9401,23.32-17.99,33.07
		c-6.85,8.47-16.14,15.4-26.95,17.66c-5.82,1.3-11.8,0.79-17.62-0.15c-7.08,20.68-12.99,42.02-23.73,61.2
		c-8.66,15.54-22.22,27.95-37.78,36.39c-27.87,15.32-59.32,21.86-89.87,29.58c-15.43,3.35-31.5,5.57-47.2,2.8
		c-9.75-1.75-19.72-6.25-25.23-14.85c-6.55-9.88-6.06-22.58-3.32-33.64c0.61-3.14,2.52-6.26,1.29-9.48
		c-8.85-33.2-7.04-68.72,2.78-101.4901c0.89-2.31,0.11-4.7-0.42-6.97c-8.63-37.12-8.88-77.11,4.95-113.03
		C764.45,527.06,774.46,510.61,786.4,495.82 M995.7,562.52c-8.55,12.38-13.76,26.61-18.89,40.64c2.16,3.29,4.35,6.7401,4.95,10.71
		c1.38,8.67-1.43,17.26-4.95,25.07c5.21,0.58,10.65,1.08,15.72-0.62c3.43-1.19,5.8-4.73,5.36-8.38c-0.65-6.55-4.33-12.24-7.79-17.66
		c8.89-5.08,17.98-9.8101,26.69-15.1801c-2.39-2.31-5.29-4.38-8.7-4.67c-4.9-0.39-9.38,2.05-13.45,4.47
		c2.54-6.98,5.15-14.42,10.69-19.64c2.61-2.61,6.55-3.26,9.94-1.86c5.28,7.3,10.48,14.67,16.0699,21.73
		c-0.26-15.82-1.23-32.82-10.11-46.47c-1.41-3.2-5.34-2.44-8.11-2.0699C1005.54,550.29,1000.07,556.49,995.7,562.52 M874.1,618.14
		c-7.68,6.33-17.3,10.23-27.19,11.19c-12.74,0.92-25.42-2.59-36.7599-8.22c0.8,4.39,3.12,8.29,4.29,12.59
		c8.48,26.83,7.16,55.9,0.13,82.89c-6.49,25-17.3,48.65-29.74,71.21c-1.7,3.22-4.61,5.98-4.73,9.84
		c21.2-3.11,42.47-8.57,61.1801-19.34c19.15-10.38,35.05-26.55,45-45.96c13.61-26.16,18.05-56.16,17.58-85.38
		c0.09-19.78-2.31-39.47-5.56-58.95C891.23,598.74,884.96,610.69,874.1,618.14z"/>
	<path fill="#0000D4" stroke="#0000D4" stroke-width="0.5" d="M995.7,562.52c4.37-6.03,9.84-12.23,17.42-13.93
		c2.77-0.3701,6.7-1.13,8.11,2.0699c8.88,13.65,9.85,30.65,10.11,46.47c-5.59-7.06-10.79-14.43-16.0699-21.73
		c-3.39-1.4-7.33-0.75-9.94,1.86c-5.54,5.22-8.15,12.66-10.69,19.64c4.07-2.42,8.55-4.86,13.45-4.47c3.41,0.29,6.31,2.36,8.7,4.67
		c-8.71,5.37-17.8,10.1-26.69,15.1801c3.46,5.42,7.14,11.11,7.79,17.66c0.44,3.65-1.93,7.19-5.36,8.38
		c-5.07,1.7-10.51,1.2-15.72,0.62c3.52-7.81,6.33-16.4,4.95-25.07c-0.6-3.97-2.79-7.42-4.95-10.71
		C981.94,589.13,987.15,574.9,995.7,562.52z"/>
	<path fill="#FEC3B1" stroke="#FEC3B1" stroke-width="0.5" d="M874.1,618.14c10.86-7.45,17.13-19.4,24.2-30.13
		c3.25,19.48,5.65,39.17,5.56,58.95c0.47,29.22-3.97,59.22-17.58,85.38c-9.95,19.41-25.85,35.58-45,45.96
		c-18.71,10.77-39.98,16.23-61.1801,19.34c0.12-3.86,3.03-6.62,4.73-9.84c12.44-22.56,23.25-46.21,29.74-71.21
		c7.03-26.9901,8.35-56.06-0.13-82.89c-1.17-4.3-3.49-8.2-4.29-12.59c11.34,5.63,24.02,9.14,36.7599,8.22
		C856.8,628.37,866.42,624.47,874.1,618.14z"/>
	<path fill="#FFFFFF" stroke="#FFFFFF" stroke-width="0.5" d="M1021.87,738.89c15.1-10.67,26.13-25.91,36.1901-41.18
		c-3.5801,9.9-8.5601,19.28-11.8301,29.32c-5.14,15.31-10.0699,31.6-7.58,47.8799c9.2,34.07,18.22,68.2,27.58,102.2401
		c-7.9299,17.56-16.79,34.71-25.0499,52.12c-9.12,18.58-17.9901,37.28-27.1901,55.81c-16.84-42.08-30.37-85.85-35.76-130.99
		c-4.29-36.1201-2.54-73.61,10.12-107.9901C999.94,749.45,1012.32,745.74,1021.87,738.89z"/>
	<path fill="#FFFFFF" stroke="#FFFFFF" stroke-width="0.5" d="M1592.23,719.25c22.1-3.25,44.64-3.01,66.87-1.14
		c45.27,4.18,89.49,17.53,130.15,37.71c35.5,17.64,68.48,40.47,97.11,67.92c26.78,25.65,49.91,55.48,65.99,89
		c0.61,1.38,1.17,2.79,1.74,4.22c-29.25-24.72-60.62-46.86-93.4199-66.62c-36.5801-21.96-75-41.02-115.11-55.66
		c-34.05-12.2-69.54-21.45-105.8-23.27c-5.61-0.47-11.25,0.09-16.8101-0.64C1612.88,753.5,1602.6899,736.28,1592.23,719.25z"/>
	<path fill="#FFFFFF" stroke="#FFFFFF" stroke-width="0.5" d="M1153.9,812.24c17.1,31.76,33.5,63.94,50.36,95.85
		c-65.25,151.9899-130.92,303.8-196.29,455.7399c-1.12,2.5701-2.22,5.15-3.42,7.6901c-25.38-11.8301-50.8-23.5701-76.2-35.37
		C1003.48,1161.5,1078.67,986.86,1153.9,812.24z"/>
	<path fill="#FEC3B1" stroke="#FEC3B1" stroke-width="0.5" d="M1608.66,826.5c0.7899-0.16,1.5499-0.03,2.2999,0.38
		c18.4,9.48,37.25,18.07,55.7201,27.42c50.9099,24.73,101.33,50.45,151.5599,76.54c81.23,42.68,161.8101,86.89,238.45,137.45
		c12.6802,8.63,25.6001,16.9099,37.9202,26.0599c11.95,8.3301,23.6799,16.9501,35.0598,26.0601
		c11.76,9.52,23.9402,18.52,35.0601,28.8099c36.1799,31.76,70.0701,67.3401,92.8901,110.12
		c11.4199,21.5901,19.7598,45.02,22.8198,69.3201c4.2,29.45,0.21,59.63-8.8699,87.8199c-1.4202,3.62-2.05,7.65-4.4302,10.8201
		c-4.8699-9.1001-9.7698-18.2301-15.9199-26.53c-26.74-37.02-62.8899-65.72-99.1199-92.9401
		c-28.99-21.22-58.79-41.3099-88.5801-61.39c-79.6-53.23-159.34-106.3899-235.74-164.1899c-9.1901-6.37-17.8301-13.49-26.72-20.27
		c-36.89-28.22-72.8201-57.65-108.1901-87.75c-22.24-18.72-43.9-38.1-65.36-57.71c-5.52-5.55-11.77-10.28-17.46-15.63
		c-12.62-12.75-26.39-24.35-38.66-37.45c-0.0601-0.32-0.17-0.94-0.23-1.25c5.74-5.94,11.9399-11.44,17.88-17.19
		C1595.74,838.99,1601.65,832.16,1608.66,826.5z"/>
	<path fill="#FFFFFF" stroke="#FFFFFF" stroke-width="0.5" d="M1081.15,1401.46c65.26-152.5499,130.47-305.12,195.76-457.66
		c-5.7001,18.25-12.5601,36.15-18.7001,54.28c-6.59,18.99-13.3999,37.9-19.84,56.94c-0.71,0.15-1.39,0.3199-2.0599,0.52
		c0.35,0.0499,1.0499,0.1499,1.3999,0.2c-1.73,6.88-4.58,13.42-6.74,20.1801c-41.1,117.37-82.15,234.75-123.24,352.12
		C1098.88,1419.16,1090.02,1410.3101,1081.15,1401.46z"/>
	<path fill="#FFFFFF" stroke="#FFFFFF" stroke-width="0.5" d="M766.52,1028.59c40.9-22.18,85.65-36.54,131.17-45.6299
		c4.6,25.79,8.93,51.64,13.23,77.4799c-43.78,3.39-86.78,15.8201-125.78,35.9501c-34.94,17.91-66.69,41.64-95.09,68.67
		C642.98,1209.87,604.87,1263.23,572.21,1319.2c7.46-40.7899,19.28-80.8899,36.3-118.74c16.13-35.7,37.32-69.22,63.67-98.27
		C699.05,1072.4301,731.25,1047.6,766.52,1028.59z"/>
	<path fill="#0000D4" stroke="#0000D4" stroke-width="0.5" d="M1583.11,1016.91c56.41,52.04,113.6801,103.18,173.0601,151.83
		c49.14,40.33,99.5699,79.13,151.96,115.15c45.77,31.33,93.05,60.64,142.8099,85.24c28.95,14.3,58.8,26.9301,89.6602,36.51
		c-14.0701-0.9301-27.9502-3.72-41.77-6.4c-56.3901-11.67-110.27-33.64-160.53-61.5c-53.65-29.77-103.41-66.14-150.03-105.9299
		c-58.11-49.7001-111.42-104.78-161.52-162.4701C1612,1052.03,1597.03,1034.89,1583.11,1016.91z"/>
	<path fill="#FFFFFF" stroke="#FFFFFF" stroke-width="0.5" d="M1463.14,1027.88c40.23,33.85,80.15,68.1,120.22,102.17
		c18.76,161.51,50.8101,321.26,90.8101,478.7899c28.0499,109.42,60.1799,217.8201,97.2899,324.53
		c15.61,44.5699,31.8401,88.95,49.61,132.7201c-25.4099,24.3198-52.2799,47.6699-83.0299,65.0398
		c-16.9301,9.25-35.62,17.01-55.25,16.4402c-31.5601-101.03-58.7101-203.4-82.5701-306.5001
		C1538.28,1573.03,1497.5601,1300.64,1463.14,1027.88z"/>
	<path fill="#ABA7F4" stroke="#ABA7F4" stroke-width="0.5" d="M2180.2,1076.62c0.0701,0.05,0.21,0.17,0.28,0.22
		C2180.4099,1076.79,2180.27,1076.67,2180.2,1076.62z"/>
	<path fill="#FEC3B1" stroke="#FEC3B1" stroke-width="0.5" d="M2355.05,1302.79l1-0.36c6.6799,17.96,11.0898,36.7,14.29,55.5699
		c0.26,5.1,1.2998,10.11,2.1499,15.15c-0.05,8.9299,1.1399,17.84,0.71,26.78c-0.4399,6,0.28,12.0099-0.2,18.0199
		c-0.55,6.3501,0.03,12.8301-1.74,19.04c-2.53,23.8101-8.76,47.0701-16.8601,69.5701c-3.0698,7.25-5.49,14.7799-9.2,21.75
		c0-0.5801-0.01-1.76-0.02-2.3401c12.3801-28.33,21.3-58.2999,25.02-89.03C2376.02,1391.85,2370.29,1345.55,2355.05,1302.79z"/>
	<path fill="#FFFFFF" stroke="#FFFFFF" stroke-width="0.5" d="M781.41,1361.49c17.81-7.72,37.9901-7,56.69-3.37
		c4.39,0.65,8.41,2.6,12.48,4.28c72.4,29.5599,144.74,59.27,217.15,88.8199c15.88,5.48,29.09,19.1901,32.97,35.66
		c4.28,17.87-2.9399,37.28-16.2899,49.52c-8.91,8.11-21.1,13.5399-33.29,12.12c-62.09-20.7001-124.11-41.64-186.18-62.42
		c-4.62-1.34-9.05-3.77-13.97-3.62c-4.95,0-10.1899,0.23-14.4399,3.09c-2.1,3.91,0.2599,8.03,2.68,11.13
		c1.65,1.99,3.27,4.3,5.81,5.2101c62.67,24.02,125.3,48.1599,187.95,72.22c8.13,2.55,14.0901,9.67,17.53,17.21
		c9.9301,22.9401-1.9,52.37-24.47,62.78c-9.88,4.61-21.45,5.3199-31.94,2.52c-58.39-19.51-116.76-39.1-175.14-58.64
		c-3.79-1.13-7.96-0.09-11.4,1.63c-4.08,1.9301-6.72,6.9399-5,11.33c1.73,4.75,6.25,7.92,10.83,9.65
		c53.2,20.15,106.38,40.37,159.56,60.5601c5.26,2.1699,11.03,3.47,15.55,7.14c8.62,6.1799,14.52,16.11,15.44,26.72
		c1.56,18.01-7.88,36.09-22.56,46.3199c-9.82,6.9301-23.13,9.49-34.47,4.9501c-52.9301-19.87-105.9-39.63-158.83-59.49
		c-5.61-1.8501-11.05-4.9901-17.12-4.7101c-2.96,0.0701-6.49,1.54-7.06,4.79c-0.53,5.59,4.21,10.16,8.87,12.4
		c49.08,19.87,98.12,39.85,147.2,59.72c14.9,5.51,28.31,19.28,28.07,36c0.1299,13.96-8.1201,26.85-19.11,34.95
		c-10.98,8.3-25.26,11.9301-38.88,10.28c-7.4-0.6-14.19-3.79-21.2-5.95c-45.1801-15.2201-90.3701-30.41-135.54-45.63
		c-22.93-7.86-46.03-15.26-68.86-23.3401c-14.04-11.95-26.15-27.1399-31.19-45.13c-4.16-14.37-2.19-30.45,5.9-43.1
		c8.5-13.38,21.91-23.01,36.29-29.26c-6.84-20.72-12.56-42.84-8.6-64.74c2.58-14.6899,11.23-28.2,23.73-36.39
		c4.69-3.38,10.03-5.59,15.18-8.13c-7.86-15.0099-14.32-31.3999-14.32-48.58c-0.05-11.8,4.09-23.64,11.97-32.49
		c11.12-12.8101,27.11-20.05,42.98-25.09c-2.53-19.4701-2.86-39.9701,4.46-58.51C756.27,1379.67,767.28,1367.4399,781.41,1361.49z"
		/>
	<path fill="#FFFFFF" stroke="#FFFFFF" stroke-width="0.5" d="M498.53,1380.5699c15.47-11.6,34.23-18.4299,53.39-20.5099
		c23.25-2.6101,46.74,0.9399,69.18,7.0499c29.21,8.02,56.9,20.64,83.7,34.6c-0.52,11.0701-1.43,22.12-2.12,33.1801
		c-18.97-11.62-39.38-21.02-60.79-27.14c-43.5-12.66-90.21-11.28-133.89-0.22c-15.06,3.64-29.75,8.65-44.28,13.99
		C472.42,1405.75,484.03,1391.37,498.53,1380.5699z"/>
	<path fill="#FFFFFF" stroke="#FFFFFF" stroke-width="0.5" d="M491.14,1494.49c57.46-5.63,115.56,4.8101,169.59,24.33
		c1.36,9.9301,3.04,19.8301,4.17,29.8c-17.23,8.6-32.67,22.92-38.33,41.79c-6.25,20.4199-1.47,42.2,5.76,61.7
		c-16.59,22.3201-29.98,47.6801-34.72,75.34c-43.88,12.62-89.1,20.53-134.65,23.6901c-35.6,2.6799-71.37,2.25-106.99,0.1799
		c33.77,22.5601,72.96,37.4801,113.56,40.8201c35.51,3.23,71.41-1.92,105.41-12.26c8.17-2.35,16.06-5.58,24.19-8.02
		c2.21,10.14,6.1,19.8101,10.55,29.15c-43.74,13.65-88.79,23.85-134.6,26.87c-26.78,1.66-53.87,0.84-80.22-4.51
		c-31.17-6.3-61.79-19.95-83.87-43.37c-6.66-7.1-12.87-14.79-17.47-23.37c-5.65-44.6901-2.99-91.33,13.68-133.55
		c13.29-34.09,36.31-64.3999,65.99-85.87C407.4,1512.04,449.15,1498.65,491.14,1494.49 M503.13,1555.65
		c-44.64,4.11-88.67,14.5399-130.64,30.1699c-19.22,14.9701-35.48,35.2001-41.26,59.26c-5.38,22.7201-0.64,46.7001,9.18,67.54
		c0.68,1.9,2.79,2.35,4.57,2.58c38.29,4.52,77.02,1.65,115.05-3.8899c42.59-6.4,84.54-16.5,125.87-28.54
		c2.43-0.1801,2.0699-2.99,2.45-4.7001c0.9-8.61,4.23-17.0399,10.16-23.4199c3.55-3.24,7.91-5.4,12.46-6.85
		c-6.06-8.9601-9.81-19.8601-7.98-30.75c3.25-19.55,13.67-37.29,15.3-57.2001c-0.42-1.0399-1.18-1.5499-2.27-1.53
		C578.65,1553.22,540.69,1552.01,503.13,1555.65z"/>
	<path fill="#FEC3B1" stroke="#FEC3B1" stroke-width="0.5" d="M503.13,1555.65c37.56-3.64,75.52-2.4301,112.89,2.6699
		c1.09-0.0199,1.85,0.4901,2.27,1.53c-1.63,19.91-12.05,37.65-15.3,57.2001c-1.83,10.8899,1.92,21.7899,7.98,30.75
		c-4.55,1.45-8.91,3.61-12.46,6.85c-5.93,6.38-9.26,14.8099-10.16,23.4199c-0.38,1.7101-0.02,4.52-2.45,4.7001
		c-41.33,12.04-83.28,22.14-125.87,28.54c-38.03,5.5399-76.76,8.4099-115.05,3.8899c-1.78-0.23-3.89-0.6799-4.57-2.58
		c-9.82-20.84-14.56-44.8199-9.18-67.54c5.78-24.0599,22.04-44.2899,41.26-59.26C414.46,1570.1899,458.49,1559.76,503.13,1555.65z"
		/>
	<path fill="#ABA7F4" stroke="#ABA7F4" stroke-width="0.5" d="M2309.1001,1571.34c0.0698-0.0599,0.2-0.1699,0.27-0.23
		C2309.3,1571.17,2309.1699,1571.28,2309.1001,1571.34z"/>
	<path fill="#FB3D00" stroke="#FB3D00" stroke-width="0.5" d="M2104.4299,1628.25c2.21,0.11,4.51,0.3199,6.6602,1.08
		c4.1199,1.49,8.6299,0.65,12.8599,1.78c5.49,1.55,11.22,1.09,16.8701,1.33c-8.1902,44.25-19.96,87.8101-33.96,130.5701
		c-10.01,30.3199-21.4602,60.16-34.1401,89.46c-0.5801,1.3101-1.3201,2.52-2.22,3.65c-0.49-7.0699-0.3799-14.23,1.0801-21.1801
		c0.8699-4.2699,0.6199-8.6299,0.8499-12.9299c0.1401-3.76,1.9302-7.25,1.8501-11.02c0.1499-3.4-0.3401-6.92,0.8101-10.17
		c2.3198-5.72,0.21-12.11,2.2998-17.88c1.51-4.1599,0.3901-8.72,1.8101-12.8999c1.72-4.5801,0.45-9.64,2.1501-14.2001
		c1.6799-4.26,0.24-9.09,2.45-13.1899c0.78-4.75,0.52-9.6801,2.1399-14.3101c0.26-6.51,2.6201-12.61,2.9202-19.1
		c2.3098-4.53,0.5498-9.8199,2.74-14.3199c1.1499-3.2201,0.46-6.8201,1.7998-10c1.3201-3.25,0.5-6.9301,1.9502-10.13
		c1.46-3.4701,0.48-7.4401,2.0698-10.87c1.3501-3.25,0.48-6.92,1.8201-10.14c1.27-2.8,0.97-5.92,1.3899-8.88
		C2102.6899,1639.54,2102.6599,1633.71,2104.4299,1628.25z"/>
	<path fill="#FFFFFF" stroke="#FFFFFF" stroke-width="0.5" d="M1060.64,1783.62c11.3199-20.88,15.8199-44.51,20.5699-67.53
		c68.92,179.8301,138.0801,359.5699,207,539.4c-35.72-8.1101-71.4099-16.3601-107.08-24.6899
		c-23.72-48.6401-46.1801-97.9001-67.3-147.73c-25.9299-61.6301-49.6899-124.2301-69.33-188.16
		c-9.28-30.51-17.8199-61.27-24.65-92.41c6.55,2.71,14.1,3.79,20.86,1.13C1049.8,1800.0699,1055.99,1791.86,1060.64,1783.62z"/>
	<path fill="#FB3D00" stroke="#FB3D00" stroke-width="0.5" d="M816.75,1897.5601c0.82,0.0599,2.47,0.1599,3.3,0.21
		c1.72,0.64,3.58,0.79,5.42,0.88L825.4,1899.46c2.71,0.27,5.37,0.92,8.1,1.15l0.02,0.8c8.25,0.9399,16.37,2.97,24.48,4.77
		c1.79,0.1599,3.6,0.2899,5.43,0.37l0.11,0.87c3.55,0,7.01,0.96,10.55,1.3099c4.34,1.12,8.89,1.71,13.39,1.8301l0.02,0.8999
		c7.21,0.15,14.29,1.75,21.42,2.6801c3.48,0.33,6.99,0.46,10.5,0.52v0.9199c2.67-0.23,5.34,0.15,7.88,1.0801
		c0.41,1.25,0.86,2.52,1.31,3.8099l0.78-0.02c0.39,0.92,0.78,1.8601,1.2,2.8301c1.69,2.1799,2.98,4.65,4.09,7.2l0.58,0.0701
		c0.9,2.4099,2.74,4.38,3.44,6.9099l0.63,0.04c1.41,3.4301,3.81,6.3199,5.41,9.67c1.54,2.2799,2.99,4.6499,3.95,7.2699l0.74,0.02
		c0.36,1.01,0.74,2.05,1.13,3.1001l0.7,0.0599c0.94,2.37,2.4,4.49,3.43,6.84l0.56,0.13c0.94,2.38,2.66,4.38,3.46,6.85l0.65,0.0601
		c0.77,2.45,2.66,4.38,3.34,6.9l0.77,0.03c0.34,1.0199,0.7,2.0499,1.0601,3.11l0.71,0.0699c0.98,2.35,2.58,4.4,3.47,6.83
		l0.66,0.0701c0.38,0.9,0.79,1.8099,1.22,2.74c0.99,1.2,1.71,2.59,2.12,4.14l0.7599,0.0599c0.35,1,0.72,2.03,1.09,3.0801
		l0.73,0.0499c0.72,2.4801,2.61,4.38,3.43,6.8501l0.58,0.12c1.07,2.2999,2.56,4.3999,3.43,6.8199l0.74,0.0699
		c0.35,1.02,0.71,2.05,1.09,3.1101l0.77,0.0199c0.68,2.4701,2.54,4.41,3.41,6.8401l0.57,0.12c1,2.33,2.43,4.46,3.47,6.7999
		l0.67,0.14c0.36,1,0.73,2.04,1.11,3.0901l0.8-0.04c0.38,2.63,2.81,4.34,3.26,6.97l0.65,0.05c1.12,2.2899,2.58,4.4299,3.45,6.87
		l0.72,0.0499c0.36,1.01,0.73,2.04,1.11,3.1001l0.69,0.0999c0.94,2.3601,2.56,4.3801,3.46,6.79l0.59,0.1301
		c0.72,2.47,2.72,4.3198,3.4,6.8398l0.76,0.03c0.37,0.8801,0.76,1.78,1.16,2.7c1.55,2.3301,2.95,4.77,4.09,7.3401l0.59,0.0801
		c0.77,2.47,2.75,4.3699,3.38,6.9099l0.79-0.04c0.33,1.01,0.68,2.05,1.04,3.1201l0.84,0.05c0.42,1.24,0.88,2.5,1.3301,3.7898
		l0.7999,0.0701c0.35,0.99,0.7101,2.01,1.0801,3.05l0.72,0.0801c0.87,2.3098,2.29,4.3699,3.59,6.5
		c0.64,1.0999,1.23,2.21,1.8101,3.4099l0.6499,0.1299c0.4301,1.2202,0.88,2.4602,1.3301,3.74l0.77,0.0801
		c0.37,0.9102,0.7799,1.8201,1.21,2.76c0.55,0.8101,1.11,1.6599,1.6801,2.53c0.8899,1.49,1.72,3.04,2.3899,4.6899l0.6101,0.0801
		c0.46,1.21,1.1299,2.3501,1.9399,3.4399c0.5,1.0901,1,2.24,1.48,3.4102l0.74,0.0798c0.3401,1.01,0.7001,2.04,1.0701,3.0801
		l0.77,0.03c0.6499,2.51,2.6299,4.3799,3.3999,6.8699l0.5901,0.1401c1.0499,2.3,2.4099,4.45,3.47,6.77l0.6899,0.1399
		c0.3501,0.99,0.7201,2.01,1.1001,3.0601l0.7,0.0999c0.9399,2.28,2.24,4.4001,3.46,6.5801c1.0701,1.6001,2.1,3.24,3.0801,4.9399
		c0.23,0.5701,0.6799,1.6902,0.8999,2.26l0.7301,0.0701c0.37,0.99,0.74,2,1.1399,3.03l0.7001,0.0801
		c0.88,2.4099,2.48,4.47,3.41,6.8899l0.61,0.0901c0.75,2.45,2.6799,4.3298,3.4399,6.8198l0.67,0.1001
		c0.39,0.9099,0.7899,1.8601,1.21,2.8201c1.62,2.23,2.99,4.6299,4.08,7.1899l0.66,0.03c0.75,2.6499,2.51,4.8201,3.91,7.1699
		c1.59,3.29,3.95,6.1401,5.4399,9.5c1.5901,2.23,2.9601,4.6401,4.04,7.1899l0.58,0.1201c0.9401,2.5901,2.51,4.8999,4.0701,7.1899
		c0.39,0.9001,0.7999,1.8201,1.22,2.78l0.65,0.1001c1.41,2.7998,3.78,6.21,1.46,9.28c-0.74,4.9399-2.84,9.5698-3.3099,14.5598
		l-0.78,0.1702c-0.39,2.8398-0.73,5.74-1.8199,8.4399c-0.3601,1.24-0.65,2.5701-1.04,3.8599c-0.14,1.1702-0.26,2.3701-0.35,3.6001
		l-0.8301-0.02c-1.08,7.4399-3.61,14.6101-5.1699,21.97c-1.1001,3.1001-1.24,6.51-2.65,9.51
		c-0.5701,4.3901-2.02,8.5901-2.91,12.9199c-0.95,3.8301-2.3199,7.6101-2.4399,11.6201l-0.8101,0.01c-0.09,1.48-0.29,3-0.7999,4.45
		c-0.14,1.1301-0.25,2.29-0.3301,3.48l-0.87,0.1301c-0.14,2.99-1.0599,5.8799-1.23,8.8899l-1.03,0.0701
		c0.09,0.54,0.26,1.6299,0.34,2.1799c-3.3799,0.5801-5.99-1.8599-9.1499-2.3699l-0.04-0.74c-3.1899-0.53-5.8-2.6902-8.97-3.23
		l-0.04-0.78c-3.15-0.6101-5.78-2.6702-8.95-3.22l-0.03-0.8101c-1.36-0.3301-2.7-0.73-4.02-1.0801l-0.04-0.8401
		c-1.6499-0.4099-3.2699-0.8799-4.88-1.2998l-0.0699-0.8301c-1.36-0.3701-2.6899-0.74-4.02-1.03l-0.03-0.79
		c-3.1699-0.5999-5.75-2.73-8.8899-3.3398l-0.05-1.0901c-0.45,0.0801-1.36,0.25-1.8201,0.3301l-0.34-1.1902
		c-0.45,0.0801-1.37,0.24-1.83,0.3201l-0.02-1.04c-3.19-0.55-5.77-2.73-8.92-3.3899l-0.1-0.76c-1.34-0.3801-2.65-0.77-3.96-1.1101
		l-0.01-0.8499c-1.37-0.3501-2.71-0.75-4.03-1.0801l-0.06-0.79c-3.14-0.6299-5.67-2.8-8.8-3.4099l-0.07-0.8101
		c-1.33-0.3999-2.64-0.8-3.95-1.1399l-0.09-0.8c-1.34-0.4199-2.66-0.8101-3.98-1.1101l-0.02-1.1199
		c-0.38,0.04-1.16,0.1199-1.54,0.1699c-0.61-0.26-1.84-0.77-2.45-1.03l-0.02-0.8499c-1.35-0.3901-2.67-0.79-3.98-1.1301
		l-0.09-0.8201c-1.32-0.4299-2.63-0.8499-3.93-1.1799l-0.07-0.8101c-1.35-0.3999-2.67-0.8298-3.98-1.2l-0.04-0.77
		c-1.59-0.3599-3.11-0.9199-4.37-1.9099c-1.2-0.51-2.38-0.97-3.55-1.4001l-0.09-0.6699c-2.8-0.73-5.26-2.28-7.89-3.3699
		l-0.07-0.7002c-1.33-0.3899-2.64-0.7998-3.94-1.1799l-0.09-0.8201c-1.31-0.4299-2.61-0.8499-3.91-1.1899l-0.06-0.8201
		c-0.6-0.2698-1.79-0.8098-2.38-1.0798c-0.39,0.03-1.17,0.0999-1.56,0.1399l0.01-1.0898c-0.61-0.27-1.83-0.79-2.43-1.05
		c-0.39,0.02-1.18,0.0798-1.57,0.1099l0.03-1.0999c-1.36-0.3901-2.69-0.8-4-1.1501l-0.03-0.78c-3.9-1.2698-7.16-3.96-11.05-5.2598
		l-0.01-0.76c-1.33-0.4302-2.63-0.8501-3.94-1.2002l-0.03-0.77c-1.22-0.4199-2.4-0.9099-3.55-1.3899
		c-2.35-1.5601-4.84-2.8701-7.43-3.9199l-0.05-0.7002c-1.32-0.4099-2.63-0.8398-3.92-1.21l-0.03-0.73
		c-2.4-1.01-4.63-2.3499-7.01-3.3599l-0.1-0.6802c-1.28-0.45-2.55-0.9099-3.82-1.2898l-0.07-0.6702
		c-2.33-1.1399-4.52-2.54-6.96-3.3899l-0.04-0.6501c-1.48-0.5398-2.92-1.1399-4.21-1.99c-0.94-0.48-1.87-0.9199-2.8-1.3198
		l-0.03-0.6501c-2.47-0.8298-4.52-2.51-6.94-3.3899l-0.07-0.6001c-2.45-0.8599-4.52-2.5-6.93-3.3999l-0.07-0.6001
		c-2.62-0.98-5.01-2.45-7.23-4.0898c-0.93-0.4402-1.85-0.8301-2.77-1.1802l-0.1-0.7c-1.45-0.48-2.81-1.1399-4.02-2.01
		c-1.08-0.6799-2.16-1.3-3.19-1.96c-2.29-1-4.1-2.8801-6.57-3.45l-0.04-0.6501c-1.22-0.49-2.33-1.1599-3.35-1.9099
		c-3.34-1.96-6.68-3.9199-9.84-6.1299c-0.95-0.4502-1.89-0.8701-2.82-1.26l-0.08-0.6201c-1.17-0.5701-2.28-1.22-3.33-1.8999
		c-4.35-2.6602-8.59-5.48-12.94-8.1001c-0.96-0.71-1.92-1.3999-2.86-2.04c-1.86-1.25-3.77-2.4199-5.75-3.4099l-0.09-0.6201
		c-0.9-0.47-1.8-0.8999-2.6899-1.3098c-1.1801-0.9302-2.38-1.8101-3.57-2.6602c-0.82-0.48-1.61-0.95-2.39-1.3999
		c-1.01-0.8601-2.14-1.48-3.29-2.02l-0.01-0.6501c-0.93-0.45-1.85-0.8699-2.76-1.2798c-1.13-0.9302-2.27-1.8201-3.42-2.6501
		c-3.05-1.8799-5.95-3.97-8.89-5.97c-3.7-2.72-7.6-5.1699-11.2-8.02c-4.69-3-8.93-6.6199-13.59-9.6499
		c-0.11-1.8701-0.21-3.75-0.25-5.5701l-0.92,0.04c-0.29-10.3601-0.22-20.7,0.05-31.04l0.92,0.02c-0.01-3.1799-0.18-6.3899,0.68-9.46
		c0.09-6.27,2.31-12.27,2.4-18.53l0.83-0.0601c0.17-3.8398,0.72-7.6799,1.84-11.3398c0.67-2.8301,1.2599-5.6802,1.38-8.5701
		l0.8199-0.0901c0.06-1.55,0.22-3.03,0.79-4.4399c0.11-1.21,0.21-2.3901,0.3-3.5601l0.85,0.05c0.3-2.7,0.85-5.3301,1.23-7.99
		l0.78-0.0701c0.27-2.6899,0.95-5.2899,1.27-7.9399l0.76-0.03c0.32-3.62,1.53-7.0599,2.57-10.51c0.23-1.1699,0.44-2.3199,0.64-3.45
		l0.78-0.0601c0.29-2.34,0.81-4.64,1.22-6.9299l0.75-0.05c0.36-2.34,0.9-4.62,1.3-6.9199l0.89-0.0801
		c0.03-0.64,0.1-1.9199,0.13-2.5599c0.36-1.38,0.87-2.66,1.54-3.87c0.72-3.1001,1.69-6.12,2.75-9.1001
		c0.25-1.1599,0.47-2.3099,0.67-3.4399l0.73-0.02c0.14-1.22,0.43-2.38,0.87-3.48c0.06-0.62,0.19-1.87,0.25-2.49l0.86-0.05
		c0.14-1.22,0.44-2.38,0.9-3.47c0.06-0.64,0.17-1.92,0.23-2.5601l0.8701,0.0901c0.19-1.23,0.48-2.4,0.87-3.53
		c0.07-0.62,0.22-1.87,0.29-2.49l0.84-0.02c0.2-1.2,0.49-2.35,0.87-3.46c0.08-0.63,0.22-1.89,0.3-2.52l0.88,0.01
		c0.18-1.1901,0.39-2.34,0.64-3.47c0.41-1,0.84-1.9701,1.28-2.92c0.27-1.04,0.55-2.05,0.86-3.04c0.53-1.4199,1.12-2.7999,1.7-4.1599
		c0.25-1.16,0.5-2.29,0.72-3.41l0.7599-0.0801c0.2-1.1499,0.44-2.2699,0.72-3.36c1.13-2.4199,1.98-4.95,2.52-7.5499l0.73-0.04
		c0.19-1.21,0.5-2.36,0.93-3.46c0.08-0.61,0.24-1.8401,0.31-2.4501l0.89-0.09c0.33-1.6899,0.75-3.35,1.11-5h0.79
		c0.1801-1.17,0.4301-2.3099,0.7401-3.41c0.58-1.3999,1.16-2.7799,1.79-4.13c0.34-1.13,0.59-2.2699,0.75-3.3999l0.81-0.04
		c0.34-1.6901,0.76-3.35,1.13-5l0.78-0.01c0.19-1.17,0.45-2.3101,0.77-3.42c0.76-1.63,1.42-3.2999,2.04-4.96
		c0.53-1.4301,1.1201-2.8199,1.71-4.1899c0.28-1.13,0.55-2.2401,0.81-3.3301l0.73-0.12
		C815.8,1900.8101,816.28,1899.17,816.75,1897.5601z"/>
	<path fill="#FFFFFF" stroke="#FFFFFF" stroke-width="0.5" d="M653.7,1926.64c1.97-3.3101,3.67-6.86,6.29-9.72
		c3.72,1.5499,6.55,4.74,9.95,6.9199c26.24,19.76,52.59,39.39,78.79,59.2201c-15.13,35.34-27.5,71.8298-37.41,108.97
		c-18.84,69.95-28.66,141.8499-42.12,212.9299c-10.08,53.8401-22.83,107.3-40.81,159.0901c-22.53,65.8201-53.34,128.5999-89.43,188
		c8.23-7.79,15.44-16.5901,23.23-24.8201c55.11-61.3799,106.79-126.4199,148.02-198.0601
		C736.46,2383.0601,758.47,2334,769.98,2282.01c2.94-13.6001,5.28-27.3501,6.46-41.22c19.82,16.27,39.74,32.49,60.85,47.0999
		c81.55,57.79,174.1,99.51,270.7,124.77c-32.25,75.76-70.51,149.02-115.06,218.29c-43.24,67.1101-92.59,130.3801-148.26,187.6301
		c-51.95,53.49-109.42,101.6699-171.68,142.73c-68.07,44.95-141.83,81.3-219.05,107.5898
		C334.09,3109.99,206.42,3126.52,80,3121.6899c31.38-77.3799,60.89-155.52,88.4-234.3599c29.64-85.21,56.9-171.27,80.68-258.3
		c22.12-81.3701,41.47-163.5801,55.3-246.79c2.44-13.1399,3.81-26.48,6.35-39.5901c23.23,49.5901,42.9,101.0801,55.44,154.4602
		c13.47,57.0898,17.93,116.5,10.98,174.8198c-5.26,45.6802-17.23,90.46-34.05,133.21c-8.73,22.4302-19.07,44.1802-29.97,65.6301
		c50.56-59.5601,89.45-128.0801,121.71-198.98c38.65-85.6201,67.81-175.2,92.58-265.72
		c27.73-100.8201,49.22-203.1902,72.56-305.0801c9.64-41.2,19.35-82.4399,32.4-122.72C638.27,1960.6,644.68,1942.99,653.7,1926.64
		 M689.11,1968.7c-37.18,113.97-61.73,231.49-87.87,348.3401c-23.4,104.1899-48.39,208.5801-87.91,308.03
		c-1.33,4.01-3.77,7.6799-4.19,11.97c10.21-12.2,20.27-24.55,29.12-37.8c39.27-57.8401,63.93-124.0901,83.16-190.8999
		c17.55-61.7002,30.64-124.54,43.64-187.3201c15.28-72.9299,30.05-146.1699,52.65-217.28c0.86-1.9-1.16-3.09-2.11-4.37
		c-6.46-7.45-12.7599-15.05-19.12-22.58C694.09,1974.02,692.24,1970.71,689.11,1968.7 M786.28,2332.01
		c-2.71,10.27-4.64,20.74-7.3101,31.03c-21.22,86.6299-53.36,170.6199-96.08,248.9399c-37.05,68.3301-82.12,132.22-133.06,190.8901
		c-89.7,103.1099-197.17,189.7698-312.9,262.0098c6.15-0.49,12.03-2.5098,18.04-3.75c64.82-15.8499,128.71-35.6499,190.68-60.45
		c73.49-29.3499,144.27-65.76,209.9-110.03c62.9-42.3799,120.97-92.02,172.01-148.1399c50.77-55.45,94.32-117.3401,130.81-183.04
		c19.71-36.23,37.84-73.3899,53.16-111.6899c-16.85,1.01-33.8701,0.3401-50.42-3.1699c-23.81-4.8501-46.61-14.05-67.77-25.9102
		C852.99,2396.1899,818.2,2365.1101,786.28,2332.01z"/>
	<path fill="#ABA7F4" stroke="#ABA7F4" stroke-width="0.5" d="M689.11,1968.7c3.13,2.01,4.98,5.3201,7.37,8.0901
		c6.36,7.5299,12.66,15.13,19.12,22.58c0.95,1.28,2.97,2.47,2.11,4.37c-22.6,71.1101-37.37,144.3501-52.65,217.28
		c-13,62.78-26.09,125.6199-43.64,187.3201c-19.23,66.8098-43.89,133.0598-83.16,190.8999c-8.85,13.25-18.91,25.6001-29.12,37.8
		c0.42-4.29,2.86-7.96,4.19-11.97c39.52-99.45,64.51-203.8401,87.91-308.03C627.38,2200.1899,651.93,2082.6699,689.11,1968.7z"/>
	<path fill="#FEC3B1" stroke="#FEC3B1" stroke-width="0.5" d="M269.55,2100.8l0.44-1c-1.61,18.3398-4.22,36.5798-6.39,54.8599
		c-1.84-8.27,1.95-16.46,1.79-24.75c-0.02-4.74,1.63-9.27,1.85-13.97C267.44,2110.8401,267.91,2105.6299,269.55,2100.8z"/>
	<path fill="#ABA7F4" stroke="#ABA7F4" stroke-width="0.5" d="M1891.11,2136.3401c0.05-0.05,0.15-0.1602,0.1901-0.22
		C1891.26,2136.1799,1891.16,2136.29,1891.11,2136.3401z"/>
	<path fill="#FEC3B1" stroke="#FEC3B1" stroke-width="0.5" d="M262,2156.0701c0.39-0.27,1.17-0.8301,1.56-1.1101
		c-4.3,34.6301-8.97,69.21-14.02,103.73c-1.67-7.3298,1.79-14.45,1.84-21.74c0.27-4.3699,1.79-8.5601,1.92-12.9299
		c0.08-4.79,1.9-9.3201,1.96-14.1001c0.07-3.6699,0.94-7.23,1.59-10.8098c0.82-4.2302,0.15-8.6301,1.56-12.74
		c1.51-5.01,0.49-10.3501,1.96-15.3501C261.77,2166.1299,261.11,2161.01,262,2156.0701z"/>
	<path fill="#ABA7F4" stroke="#ABA7F4" stroke-width="0.5" d="M1829.11,2200.3701c0.0701-0.0601,0.21-0.1902,0.28-0.25
		C1829.3199,2200.1799,1829.1801,2200.3101,1829.11,2200.3701z"/>
	<path fill="#FEC3B1" stroke="#FEC3B1" stroke-width="0.5" d="M1825.0601,2204.22c0.0499-0.05,0.1499-0.1399,0.2-0.1899
		C1825.21,2204.0801,1825.11,2204.1699,1825.0601,2204.22z"/>
	<path fill="#ABA7F4" stroke="#ABA7F4" stroke-width="0.5" d="M1769.15,2253.3201c0.0399-0.04,0.13-0.1101,0.1699-0.1501
		C1769.28,2253.21,1769.1899,2253.28,1769.15,2253.3201z"/>
	<path fill="#FEC3B1" stroke="#FEC3B1" stroke-width="0.5" d="M247.44,2263.99c0.23-1.8301-0.14-4.3301,2.06-5.03
		c-4.33,30.28-8.99,60.51-13.89,90.71c-0.96-4.3098-0.15-8.71,0.88-12.9099c1.48-9.26,2.63-18.5801,4.55-27.75
		c0.42-3.25,0.18-6.5701,1.26-9.6799c1.43-4.3401,0.68-9.01,2.07-13.3401c1.21-4.23,0.72-8.7,1.89-12.9299
		C246.99,2270.0801,247.28,2267.02,247.44,2263.99z"/>
	<path fill="#ABA7F4" stroke="#ABA7F4" stroke-width="0.5" d="M786.28,2332.01c31.92,33.1001,66.71,64.1799,107.06,86.6899
		c21.16,11.8601,43.96,21.0601,67.77,25.9102c16.55,3.51,33.57,4.1799,50.42,3.1699c-15.32,38.3-33.45,75.46-53.16,111.6899
		c-36.49,65.7-80.04,127.5901-130.81,183.04c-51.04,56.1199-109.11,105.76-172.01,148.1399
		c-65.63,44.27-136.41,80.6802-209.9,110.03c-61.97,24.8-125.86,44.6001-190.68,60.45c-6.01,1.2402-11.89,3.26-18.04,3.75
		c115.73-72.24,223.2-158.8999,312.9-262.0098c50.94-58.6702,96.01-122.5601,133.06-190.8901
		c42.72-78.3201,74.86-162.3101,96.08-248.9399C781.64,2352.75,783.57,2342.28,786.28,2332.01z"/>
	<path fill="#FEC3B1" stroke="#FEC3B1" stroke-width="0.5" d="M229.16,2381.8899c0.78-2.6099-0.71-6.73,2.45-7.9199
		c-5.04,29.97-10.16,59.9399-15.89,89.79l-0.58,0.97c-0.04-3.6001,0.13-7.2,1.12-10.6499
		C220.84,2430.04,224.81,2405.96,229.16,2381.8899z"/>
	<path fill="#FEC3B1" stroke="#FEC3B1" stroke-width="0.5" d="M213.17,2472.01c0.23-2.45,0.42-4.9199,1.45-7.1599
		c0.84,2.4099-0.05,4.8398-0.46,7.25c-6.29,34.98-13.27,69.8499-20.49,104.6499c-1.33-4,0.6-7.8799,1.28-11.76
		c3.63-19.04,7.95-37.96,11.19-57.0601C208.87,2496.02,210.54,2483.8999,213.17,2472.01z"/>
	<path fill="#ABA7F4" stroke="#ABA7F4" stroke-width="0.5" d="M1078.5601,2588.6399c0.2599-0.45,0.7899-1.3599,1.0499-1.8098
		l0.42,0.8499l-0.54,0.9402L1078.5601,2588.6399z"/>
	<path fill="#FEC3B1" stroke="#FEC3B1" stroke-width="0.5" d="M179.9,2635.02c0.4-0.26,1.2-0.76,1.6-1.01
		c-14.67,66.8301-30.57,133.3999-47.88,199.6001c-0.97-4.2302,1.01-8.25,1.98-12.24C151.29,2759.48,166.65,2697.46,179.9,2635.02z"
		/>
	<path fill="#ABA7F4" stroke="#ABA7F4" stroke-width="0.5" d="M987.15,2729.3301c0.04-0.04,0.1-0.1301,0.14-0.1802
		C987.25,2729.2,987.19,2729.29,987.15,2729.3301z"/>
	<path fill="#ABA7F4" stroke="#ABA7F4" stroke-width="0.5" d="M861.21,2871.45c0.06-0.05,0.18-0.1599,0.23-0.21
		C861.39,2871.29,861.27,2871.3999,861.21,2871.45z"/>
	<path fill="#ABA7F4" stroke="#ABA7F4" stroke-width="0.5" d="M859.16,2873.3c0.05-0.04,0.14-0.1201,0.1801-0.1602
		C859.3,2873.1799,859.21,2873.26,859.16,2873.3z"/>
	<path fill="#FEC3B1" stroke="#FEC3B1" stroke-width="0.5" d="M855.02,2877.0901c0.04-0.04,0.13-0.1201,0.17-0.1602
		C855.15,2876.97,855.06,2877.05,855.02,2877.0901z"/>
	<path fill="#ABA7F4" stroke="#ABA7F4" stroke-width="0.5" d="M809.17,2917.3201c0.05-0.04,0.13-0.1101,0.18-0.1401
		C809.3,2917.21,809.22,2917.28,809.17,2917.3201z"/>
	<path fill="#FEC3B1" stroke="#FEC3B1" stroke-width="0.5" d="M94.16,2971.78l1.26,0.4099c-6.92,23.8-13.99,47.55-21.31,71.24
		c-1.1-3.6199,1.04-7.04,1.94-10.4199C82.19,3012.6299,88.57,2992.3101,94.16,2971.78z"/>
	<path fill="#ABA7F4" stroke="#ABA7F4" stroke-width="0.5" d="M650.88,3023.46c0.34-0.1899,1.02-0.5701,1.36-0.75l0.48,0.6401
		l-0.41,0.7798C651.96,3023.96,651.24,3023.6299,650.88,3023.46z"/>
	<path fill="#FEC3B1" stroke="#FEC3B1" stroke-width="0.5" d="M439.44,3107.75c26.33-7.3201,52.42-15.53,78.13-24.8301
		c0.05,1.79-2.12,1.8201-3.28,2.52c-21.59,7.6301-43.45,14.47-65.39,21C445.8,3107.1101,442.63,3108.99,439.44,3107.75z"/>
	<path fill="#FEC3B1" stroke="#FEC3B1" stroke-width="0.5" d="M117.27,3151.22c84.8-1.3699,169.66-9.3101,252.74-26.74
		c-0.64,2.6401-4,1.6699-5.95,2.3701c-5.76,1.45-11.64,2.3398-17.45,3.5898c-5.34,0.0901-10.25,2.55-15.62,2.4001
		c-10.9,2.6799-22.1,3.6499-33.11,5.6799c-5.76-0.22-11.16,2.1699-16.89,2.1399c-4.4,0.0901-8.55,1.98-12.97,1.8601
		c-5.32-0.1201-10.45,1.53-15.72,1.8999c-4.76,0.3101-9.55,0.46-14.25,1.3701c-7.25,1.49-14.75,0.3799-22,1.9299
		c-6.25,1.4001-12.7,0.5901-19.04,1.2c-6.68,0.1401-13.23,1.72-19.92,1.6702c-12.02,0.1799-24.11,0.0999-36.03,1.8298
		c-28,0.21-55.99,0.1101-83.99,0.05c-5.17,0.1401-10.24-1.1299-15.41-1.1599c-0.22-0.26-0.67-0.79-0.89-1.0601
		c12.65,0.1299,25.28,0.96,37.93,0.98C91.54,3151.75,104.43,3151.7,117.27,3151.22z"/>
	<path fill="#ABA7F4" stroke="#ABA7F4" stroke-width="0.5" d="M78.7,3151.23c12.86-0.1299,25.71-0.1399,38.57-0.01
		C104.43,3151.7,91.54,3151.75,78.7,3151.23z"/>
</g>
</svg>
